<svg width="145" height="40" viewBox="0 0 145 40" fill="none" xmlns="http://www.w3.org/2000/svg">
<g clip-path="url(#clip0_82_5431)">
<path d="M143.412 34.7986C143.412 32.5755 141.835 30.9477 139.664 30.9477C137.496 30.9477 135.917 32.5755 135.917 34.7986C135.917 37.0181 137.496 38.6432 139.664 38.6432C141.835 38.6432 143.412 37.0154 143.412 34.7986ZM138.679 34.9961V37.5114H137.866V31.9649H139.886C141.069 31.9649 141.612 32.4817 141.612 33.4891C141.612 34.1096 141.192 34.6011 140.652 34.6723V34.6958C141.121 34.7706 141.293 35.1891 141.39 35.9548C141.464 36.4508 141.562 37.3112 141.739 37.5132H140.777C140.554 36.9919 140.576 36.2542 140.404 35.6364C140.262 35.1665 140.011 34.9952 139.472 34.9952H138.683V34.9979L138.679 34.9961ZM139.686 34.2791C140.475 34.2791 140.701 33.8589 140.701 33.4882C140.701 33.0499 140.475 32.7036 139.686 32.7036H138.679V34.2809H139.686V34.2791ZM135.024 34.7986C135.024 32.0597 137.198 30.2081 139.66 30.2081C142.129 30.2081 144.301 32.0597 144.301 34.7986C144.301 37.5321 142.13 39.3854 139.66 39.3854C137.198 39.3854 135.024 37.5321 135.024 34.7986Z" fill="#FF5A00"/>
<path d="M118.955 38.5855L113.609 32.5908L108.311 38.5855H97.1622L108.058 26.3436L97.1622 14.0982H108.659L114.059 20.0469L119.254 14.0982H130.349L119.507 26.2922L130.499 38.5855H118.955ZM75.7539 38.5855V0.0102539H97.1622V8.60858H84.8221V14.0982H97.1622V22.3718H84.8221V29.9655H97.1622V38.5855H75.7539Z" fill="#FF5A00"/>
<path d="M66.7195 0.0102539V15.7973H66.6194C64.62 13.4994 62.1209 12.6985 59.2233 12.6985C53.2854 12.6985 48.8122 16.7379 47.2421 22.0742C45.451 16.1932 40.8326 12.5885 33.9857 12.5885C28.4239 12.5885 24.0336 15.0839 21.7402 19.1513V14.0973H10.246V8.60948H22.7909V0.0120601H0V38.5855H10.246V22.3718H20.4587C20.1441 23.6187 19.9868 24.8999 19.9906 26.1858C19.9906 34.2286 26.1368 39.8805 33.9838 39.8805C40.58 39.8805 44.9306 36.7809 47.2295 31.1379H38.4481C37.2612 32.8361 36.3593 33.3376 33.9848 33.3376C31.2323 33.3376 28.8568 30.935 28.8568 28.0905H46.737C47.5126 34.4802 52.4909 39.9897 59.3234 39.9897C62.2707 39.9897 64.969 38.5404 66.6185 36.0918H66.7177V38.5909H75.7516V0.0120601H66.7195V0.0102539ZM29.1418 22.4873C29.7126 20.036 31.6129 18.4343 33.9848 18.4343C36.5965 18.4343 38.4003 19.9864 38.8737 22.4873H29.1418ZM61.2371 32.7153C57.9084 32.7153 55.8395 29.6138 55.8395 26.3743C55.8395 22.9112 57.6396 19.5842 61.2371 19.5842C64.9699 19.5842 66.4571 22.913 66.4571 26.3743C66.4571 29.6553 64.8824 32.7153 61.2371 32.7153Z" fill="#29007C"/>
</g>
<defs>
<clipPath id="clip0_82_5431">
<rect width="144.3" height="40" fill="white"/>
</clipPath>
</defs>
</svg>
