<svg width="116" height="136" viewBox="0 0 116 136" fill="none" xmlns="http://www.w3.org/2000/svg">
<path opacity="0.1" d="M116 58.0298C116 71.1642 111.589 83.3433 104.197 93.1343C100.144 98.388 95.2559 103.045 89.6526 106.627C80.592 112.597 69.7431 116.06 58.0596 116.06C25.9897 116.06 0 90.0298 0 58.0298C0 25.9104 25.9897 0 57.9404 0C69.6239 0 80.4728 3.46269 89.5334 9.31343C95.1367 12.8955 100.025 17.5522 104.078 22.806C111.589 32.7164 116 44.7761 116 58.0298Z" fill="#EAEEF9"/>
<path d="M5.06566 51.8947C6.13863 51.8947 7.09238 51.0588 7.09238 49.8648C7.09238 48.7902 6.25785 47.835 5.06566 47.835C3.99269 47.835 3.03894 48.6708 3.03894 49.8648C3.03894 50.9394 3.87347 51.8947 5.06566 51.8947Z" fill="url(#paint0_linear_82_4865)"/>
<path d="M14.7524 97.0114C15.8253 97.0114 16.7791 96.1755 16.7791 94.9815C16.7791 93.7875 15.9446 92.9517 14.7524 92.9517C13.6794 92.9517 12.7256 93.7875 12.7256 94.9815C12.7256 96.1755 13.6794 97.0114 14.7524 97.0114Z" fill="url(#paint1_linear_82_4865)"/>
<path d="M110.754 17.194V39.5223C110.754 42.6268 108.251 45.1343 105.151 45.1343H20.2672C17.1675 45.1343 14.6639 42.6268 14.6639 39.5223V17.194C14.6639 14.0895 17.1675 11.582 20.2672 11.582H105.27C108.37 11.582 110.754 14.0895 110.754 17.194Z" fill="#C2C8D6"/>
<path d="M106.582 17.194V39.5223C106.582 42.6268 104.078 45.1343 100.978 45.1343H15.9754C12.8757 45.1343 10.3721 42.6268 10.3721 39.5223V17.194C10.3721 14.0895 12.8757 11.582 15.9754 11.582H100.978C104.078 11.582 106.582 14.0895 106.582 17.194Z" fill="#D8DDE7"/>
<path d="M95.6136 26.7462V45.0149H20.9825V26.7462C20.9825 23.6417 23.4861 21.1343 26.5858 21.1343H90.1295C93.2292 21.2537 95.6136 23.7611 95.6136 26.7462Z" fill="#E9EEF4"/>
<path opacity="0.3" d="M95.6136 26.7462V45.0149H20.9825V26.7462C20.9825 23.6417 23.4861 21.1343 26.5858 21.1343H90.1295C93.2292 21.2537 95.6136 23.7611 95.6136 26.7462Z" fill="url(#paint2_linear_82_4865)"/>
<path d="M88.9373 35.1046H30.8777C30.4008 35.1046 30.0432 34.7464 30.0432 34.2688V32.0001C30.0432 31.5225 30.4008 31.1643 30.8777 31.1643H89.0565C89.5334 31.1643 89.891 31.5225 89.891 32.0001V34.2688C89.891 34.7464 89.4142 35.1046 88.9373 35.1046Z" fill="#4C5865"/>
<path d="M94.1829 18.8659C95.3022 18.8659 96.2096 17.9571 96.2096 16.836C96.2096 15.7149 95.3022 14.8062 94.1829 14.8062C93.0636 14.8062 92.1562 15.7149 92.1562 16.836C92.1562 17.9571 93.0636 18.8659 94.1829 18.8659Z" fill="url(#paint3_linear_82_4865)"/>
<path d="M86.9106 18.8659C88.0299 18.8659 88.9373 17.9571 88.9373 16.836C88.9373 15.7149 88.0299 14.8062 86.9106 14.8062C85.7912 14.8062 84.8839 15.7149 84.8839 16.836C84.8839 17.9571 85.7912 18.8659 86.9106 18.8659Z" fill="white"/>
<g filter="url(#filter0_d_82_4865)">
<path d="M77.6113 83.8212V99.9406C77.6113 101.254 76.1806 101.97 75.1077 101.135L71.8887 98.7466C71.2926 98.3884 70.5773 98.3884 69.9812 98.7466L65.2125 102.329C64.6164 102.687 63.9011 102.687 63.305 102.329L58.5362 98.7466C57.9401 98.3884 57.2248 98.3884 56.6287 98.7466L51.86 102.329C51.2639 102.687 50.5486 102.687 49.9525 102.329L45.1837 98.7466C44.5876 98.3884 43.8723 98.3884 43.2762 98.7466L38.5074 102.329C37.9113 102.687 37.196 102.687 36.5999 102.329L31.8312 98.7466C31.2351 98.3884 30.5198 98.3884 29.9237 98.7466L26.7048 101.135C25.6318 101.851 24.2012 101.135 24.2012 99.9406V48.8361C24.3204 39.8809 25.9895 36.06 33.5002 33.1943H86.9103C79.5187 35.1048 77.3728 39.7615 77.6113 48.8361V71.4033V83.8212Z" fill="white"/>
</g>
<path opacity="0.4" d="M65.3319 54.687H47.8068C46.853 54.687 46.1377 53.9706 46.1377 53.0154C46.1377 52.0602 46.853 51.3438 47.8068 51.3438H65.4512C66.4049 51.3438 67.1202 52.0602 67.1202 53.0154C67.001 53.9706 66.2857 54.687 65.3319 54.687Z" fill="#4C5865"/>
<path opacity="0.4" d="M41.4879 54.687H33.7386C32.7849 54.687 32.0696 53.9706 32.0696 53.0154C32.0696 52.0602 32.7849 51.3438 33.7386 51.3438H41.4879C42.4416 51.3438 43.1569 52.0602 43.1569 53.0154C43.1569 53.9706 42.4416 54.687 41.4879 54.687Z" fill="#4C5865"/>
<path opacity="0.4" d="M65.3314 68.6568H33.7384C32.7846 68.6568 32.0693 67.9403 32.0693 66.9851C32.0693 66.0299 32.7846 65.3135 33.7384 65.3135H65.3314C66.2852 65.3135 67.0005 66.0299 67.0005 66.9851C67.0005 67.9403 66.2852 68.6568 65.3314 68.6568Z" fill="#4C5865"/>
<path opacity="0.4" d="M57.5825 82.5078H45.3029C44.3492 82.5078 43.6339 81.7914 43.6339 80.8362C43.6339 79.881 44.3492 79.1646 45.3029 79.1646H57.5825C58.5362 79.1646 59.2515 79.881 59.2515 80.8362C59.2515 81.7914 58.417 82.5078 57.5825 82.5078Z" fill="#4C5865"/>
<path opacity="0.4" d="M38.5074 82.5078H33.7386C32.7849 82.5078 32.0696 81.7914 32.0696 80.8362C32.0696 79.881 32.7849 79.1646 33.7386 79.1646H38.5074C39.4611 79.1646 40.1765 79.881 40.1765 80.8362C40.1765 81.7914 39.3419 82.5078 38.5074 82.5078Z" fill="#4C5865"/>
<path d="M103.124 82.9852V117.493C103.124 118.806 102.051 119.881 100.74 119.881C95.8516 119.881 84.645 120 81.4261 120C80.83 120 80.2339 119.761 79.8762 119.403L77.1342 117.015L72.0078 112.239C70.2195 110.567 68.7889 108.537 67.9544 106.149L62.9472 91.5822L61.2781 86.8061L61.1589 86.5673L58.8937 79.8807C58.7745 79.5225 58.6553 79.1643 58.6553 78.6867V78.5673C58.6553 77.2539 59.4898 76.0598 60.682 75.4628C63.7817 74.03 67.3583 74.9852 69.385 77.4927C69.7426 77.9703 70.1003 78.5673 70.3387 79.1643L74.1537 88.4777L75.1075 90.8658L75.2267 91.1046C75.5844 92.0598 76.6573 92.5374 77.6111 92.1792L84.1681 90.2688C85.0027 90.03 85.4795 89.3135 85.4795 88.4777L85.1219 82.8658C85.0026 81.1941 84.4066 79.5225 83.2144 78.3285L77.4919 72.0001V62.8061L77.0811 53L99.905 75.4628C101.932 77.4927 103.124 80.2389 103.124 82.9852Z" fill="white" stroke="#1C3754" stroke-miterlimit="10" stroke-linecap="round" stroke-linejoin="round"/>
<path d="M76.3513 52L72.582 52.5128V58.1538L76.3513 72H79.582L78.082 55L77.582 52H76.3513Z" fill="white"/>
<path d="M115.297 21.6764C115.185 21.9028 115.185 22.1293 115.073 22.3557C114.848 22.9218 114.623 23.6012 114.286 24.1673C113.049 26.9976 109.901 30.5068 105.403 32.205C104.054 32.771 102.705 33.1111 101.244 33.2243C99.6696 33.4507 97.8707 33.3373 96.1843 32.9977C87.1899 31.073 81.4561 22.3557 83.3674 13.2987C86.0657 0.279173 102.031 -4.47567 111.25 4.92102C115.635 9.44955 116.984 16.0157 115.297 21.6764Z" fill="url(#paint4_linear_82_4865)"/>
<path d="M115.057 22.3439C114.833 22.9099 114.608 23.5892 114.27 24.1553C113.034 26.9856 109.886 30.4952 105.389 32.1934C104.039 32.7595 102.69 33.0991 101.229 33.2123L92.3467 24.2685L94.0331 23.0232L101.791 21.891L95.832 16.0039L95.1574 12.0415L96.3941 8.7583L100.329 12.7208L105.726 13.2868L115.057 22.3439Z" fill="url(#paint5_linear_82_4865)"/>
<path d="M107.299 17.8154C107.299 13.9661 104.151 10.9094 100.328 10.9094H96.8429V9.55079C96.8429 9.09794 96.5056 8.7583 96.0559 8.7583C95.8311 8.7583 95.7186 8.87151 95.6062 8.87151L92.0085 11.7018C91.6712 11.9283 91.5587 12.4943 91.896 12.834L92.0085 12.9472L95.6062 15.7775C95.9435 16.0039 96.3932 16.0039 96.7305 15.6643C96.8429 15.5511 96.8429 15.3247 96.8429 15.2114V13.8529H100.328C102.464 13.8529 104.151 15.5511 104.151 17.7021C104.151 19.8532 102.464 21.5514 100.328 21.5514H93.3576C92.5706 21.5514 91.7836 22.2307 91.7836 23.0232C91.7836 23.8156 92.4582 24.6081 93.2452 24.6081H100.328C104.151 24.8346 107.299 21.6646 107.299 17.8154Z" fill="url(#paint6_linear_82_4865)"/>
<defs>
<filter id="filter0_d_82_4865" x="2.20117" y="22.1943" width="106.709" height="113.403" filterUnits="userSpaceOnUse" color-interpolation-filters="sRGB">
<feFlood flood-opacity="0" result="BackgroundImageFix"/>
<feColorMatrix in="SourceAlpha" type="matrix" values="0 0 0 0 0 0 0 0 0 0 0 0 0 0 0 0 0 0 127 0" result="hardAlpha"/>
<feOffset dy="11"/>
<feGaussianBlur stdDeviation="11"/>
<feColorMatrix type="matrix" values="0 0 0 0 0.397708 0 0 0 0 0.47749 0 0 0 0 0.575 0 0 0 0.26 0"/>
<feBlend mode="normal" in2="BackgroundImageFix" result="effect1_dropShadow_82_4865"/>
<feBlend mode="normal" in="SourceGraphic" in2="effect1_dropShadow_82_4865" result="shape"/>
</filter>
<linearGradient id="paint0_linear_82_4865" x1="3.03894" y1="49.8613" x2="6.89281" y2="49.8613" gradientUnits="userSpaceOnUse">
<stop stop-color="#83A6FF"/>
<stop offset="1" stop-color="#5A78FF"/>
</linearGradient>
<linearGradient id="paint1_linear_82_4865" x1="12.8084" y1="95.0738" x2="16.6623" y2="95.0738" gradientUnits="userSpaceOnUse">
<stop stop-color="#FF66A9"/>
<stop offset="1" stop-color="#F53689"/>
</linearGradient>
<linearGradient id="paint2_linear_82_4865" x1="58.3039" y1="21.6782" x2="58.3039" y2="44.7075" gradientUnits="userSpaceOnUse">
<stop offset="0.00289017" stop-color="#0E2F51"/>
<stop offset="1" stop-color="#35415E" stop-opacity="0.31"/>
</linearGradient>
<linearGradient id="paint3_linear_82_4865" x1="92.116" y1="16.8276" x2="96.1206" y2="16.8276" gradientUnits="userSpaceOnUse">
<stop stop-color="#FF66A9"/>
<stop offset="1" stop-color="#F53689"/>
</linearGradient>
<linearGradient id="paint4_linear_82_4865" x1="82.8872" y1="16.771" x2="116.008" y2="16.771" gradientUnits="userSpaceOnUse">
<stop stop-color="#FF66A9"/>
<stop offset="1" stop-color="#F53689"/>
</linearGradient>
<linearGradient id="paint5_linear_82_4865" x1="92.9404" y1="12.5787" x2="110.05" y2="29.5701" gradientUnits="userSpaceOnUse">
<stop stop-color="#E81778"/>
<stop offset="1" stop-color="#E01F79" stop-opacity="0"/>
</linearGradient>
<linearGradient id="paint6_linear_82_4865" x1="104.529" y1="24.5698" x2="92.44" y2="12.3478" gradientUnits="userSpaceOnUse">
<stop offset="0.0113208" stop-color="#FFC9E3"/>
<stop offset="1" stop-color="white"/>
</linearGradient>
</defs>
</svg>
