<svg width="164" height="126" viewBox="0 0 164 126" fill="none" xmlns="http://www.w3.org/2000/svg">
<path opacity="0.1" d="M135.889 55.4054C135.889 67.4739 131.803 78.6646 124.955 87.6612C121.2 92.4886 116.671 96.7674 111.48 100.059C103.087 105.544 93.0359 108.726 82.2122 108.726C52.5021 108.616 28.4248 84.6989 28.4248 55.2957C28.4248 25.7827 52.5021 1.97485 82.1017 1.97485C92.9255 1.97485 102.976 5.15655 111.37 10.5325C116.561 13.8239 121.089 18.1027 124.844 22.9301C131.803 32.1461 135.889 43.3369 135.889 55.4054Z" fill="#EAEEF9"/>
<path d="M26.5026 93.9446C27.4966 93.9446 28.3802 93.1766 28.3802 92.0795C28.3802 91.0921 27.6071 90.2144 26.5026 90.2144C25.5086 90.2144 24.625 90.9824 24.625 92.0795C24.625 93.0669 25.5086 93.9446 26.5026 93.9446Z" fill="url(#paint0_linear_82_5146)"/>
<path d="M127.495 14.8114C128.489 14.8114 129.262 14.0434 129.262 13.056C129.262 12.0685 128.489 11.3005 127.495 11.3005C126.501 11.3005 125.728 12.0685 125.728 13.056C125.838 14.0434 126.611 14.8114 127.495 14.8114Z" fill="url(#paint1_linear_82_5146)"/>
<path d="M108.719 101.156C108.719 105.215 105.406 108.616 101.209 108.616H61.1168C57.0303 108.616 53.6064 105.325 53.6064 101.156V7.46052C53.6064 3.40112 56.9198 0 61.1168 0H101.54C105.627 0 109.051 3.29141 109.051 7.46052V101.266H108.719V101.156Z" fill="white"/>
<path d="M101.43 0C105.516 0 108.94 3.29141 108.94 7.46052V101.485C108.94 105.544 105.627 108.946 101.43 108.946H61.1168C57.0303 108.946 53.6064 105.654 53.6064 101.485V7.46052C53.6064 3.40112 56.9198 0 61.1168 0H101.43Z" fill="#1C3754"/>
<path d="M105.074 7.13144V101.156C105.074 102.582 104.301 103.679 103.196 104.338C102.644 104.557 102.092 104.777 101.429 104.777H61.1164C60.6746 104.777 60.2328 104.667 59.7911 104.557C58.3552 104.118 57.4717 102.802 57.4717 101.156V7.46058C57.4717 5.81488 58.4657 4.60803 59.7911 4.05946C60.2328 3.94975 60.6746 3.84003 61.1164 3.84003H67.0805C67.8536 3.84003 68.4059 4.3886 68.4059 5.1566C68.4059 6.69259 69.7312 8.00915 71.2775 8.00915H91.7101C93.2563 8.00915 94.5817 6.69259 94.5817 5.1566C94.5817 4.3886 95.1339 3.84003 95.907 3.84003H101.54V3.62061C102.202 3.62061 102.755 3.73032 103.307 4.05946C104.301 4.60803 105.074 5.70516 105.074 7.13144Z" fill="white"/>
<path d="M84.7523 4.82749H79.3404C78.7882 4.82749 78.5673 4.27893 78.5673 4.0595C78.5673 3.51093 79.1195 3.2915 79.3404 3.2915H84.7523C85.3045 3.2915 85.5254 3.84007 85.5254 4.0595C85.5254 4.60807 85.3045 4.82749 84.7523 4.82749Z" fill="#2D5887"/>
<path d="M76.2479 4.82749H76.027C75.4748 4.82749 75.2539 4.27893 75.2539 4.0595C75.2539 3.51093 75.8061 3.2915 76.027 3.2915H76.2479C76.8002 3.2915 77.0211 3.84007 77.0211 4.0595C77.0211 4.60807 76.8002 4.82749 76.2479 4.82749Z" fill="#2D5887"/>
<g filter="url(#filter0_d_82_5146)">
<path d="M56.6802 81.7416H26.4179C23.988 81.7416 22 79.7667 22 77.353V40.599C22 38.1853 23.988 36.2104 26.4179 36.2104H56.6802C59.11 36.2104 61.098 38.1853 61.098 40.599V77.353C61.2085 79.7667 59.2204 81.7416 56.6802 81.7416Z" fill="white"/>
</g>
<path d="M48.9486 69.1244H27.9638C27.3012 69.1244 26.8594 68.5759 26.8594 68.0273C26.8594 67.369 27.4116 66.9302 27.9638 66.9302H49.0591C49.7218 66.9302 50.1636 67.4787 50.1636 68.0273C50.0531 68.5759 49.6113 69.1244 48.9486 69.1244Z" fill="#CED7E2"/>
<path d="M37.2413 75.3784H27.9638C27.3012 75.3784 26.8594 74.8298 26.8594 74.2812C26.8594 73.7326 27.4116 73.1841 27.9638 73.1841H37.2413C37.904 73.1841 38.3458 73.7326 38.3458 74.2812C38.2354 74.9395 37.7936 75.3784 37.2413 75.3784Z" fill="#CED7E2"/>
<path d="M52.3723 46.6332C52.2618 46.5235 52.1514 46.4138 52.0409 46.4138C50.7156 45.3167 49.5007 44.2195 48.1753 43.2321C48.0649 43.1224 47.844 43.0127 47.6231 43.0127C46.6291 43.0127 45.635 43.0127 44.641 43.0127C44.1992 43.0127 43.9783 43.2321 43.9783 43.671C43.8679 44.6584 43.0948 45.5361 42.1008 45.5361C40.9963 45.5361 40.1127 44.7681 40.0023 43.7807C39.8918 42.7933 39.6709 43.1224 36.5784 43.0127C36.2471 43.0127 36.0262 43.1224 35.6949 43.3418C34.3695 44.439 33.0442 45.5361 31.8292 46.5235C31.7188 46.5235 31.7188 46.6332 31.6083 46.6332C31.1666 46.9624 31.1666 47.1818 31.4979 47.6207C32.1606 48.3887 32.8233 49.1567 33.3755 49.9246C33.7068 50.2538 33.8173 50.3635 34.48 50.0344C34.8113 49.9247 35.3635 49.5955 36.0262 49.2664V59.0309C36.0262 59.6892 36.1366 59.9086 36.9098 59.9086C40.2232 59.9086 43.5366 59.9086 46.8499 59.9086C47.6231 59.9086 47.7335 59.7989 47.7335 59.0309V49.2664C48.5066 49.5955 49.0589 49.9247 49.3902 50.0344C50.0529 50.3635 50.1633 50.2538 50.4947 49.9246C51.1574 49.1567 51.82 48.3887 52.4827 47.6207C52.8141 47.2915 52.8141 46.9624 52.3723 46.6332Z" fill="#DDE1F0"/>
<path d="M46.4077 49.9247L45.3033 50.6927C45.1928 50.8024 44.8615 50.8024 44.751 50.6927L43.6466 49.9247C43.5361 49.815 43.5361 49.7053 43.5361 49.7053V47.9499C43.5361 47.8402 43.6466 47.7305 43.757 47.7305H46.2973C46.4077 47.7305 46.5182 47.8402 46.5182 47.9499V49.7053C46.5182 49.815 46.4077 49.9247 46.4077 49.9247Z" fill="#C5CCDE"/>
<path d="M34.7008 50.0343C34.0381 50.3634 33.9277 50.2537 33.5963 49.9246C32.9336 49.1566 32.271 48.3886 31.7187 47.6206C31.3874 47.1817 31.3874 46.9623 31.8292 46.6331C31.9396 46.6331 31.9396 46.5234 32.0501 46.5234L34.7008 50.0343Z" fill="#C5CCDE"/>
<path d="M52.5935 47.6209C51.9308 48.3889 51.2681 49.1569 50.6054 49.9249C50.2741 50.254 50.1637 50.254 49.501 50.0346L52.1517 46.4141C52.2621 46.5238 52.3726 46.6335 52.483 46.6335C52.9248 46.9626 52.9248 47.2918 52.5935 47.6209Z" fill="#C5CCDE"/>
<g filter="url(#filter1_d_82_5146)">
<path d="M137.583 81.7416H107.32C104.89 81.7416 102.902 79.7667 102.902 77.353V40.599C102.902 38.1853 104.89 36.2104 107.32 36.2104H137.583C140.012 36.2104 142 38.1853 142 40.599V77.353C142 79.7667 140.012 81.7416 137.583 81.7416Z" fill="white"/>
</g>
<path d="M129.852 69.1244H108.757C108.094 69.1244 107.652 68.5759 107.652 68.0273C107.652 67.369 108.205 66.9302 108.757 66.9302H129.852C130.515 66.9302 130.957 67.4787 130.957 68.0273C130.957 68.5759 130.404 69.1244 129.852 69.1244Z" fill="#CED7E2"/>
<path d="M118.034 75.3784H108.757C108.094 75.3784 107.652 74.8298 107.652 74.2812C107.652 73.7326 108.205 73.1841 108.757 73.1841H118.034C118.697 73.1841 119.139 73.7326 119.139 74.2812C119.139 74.9395 118.697 75.3784 118.034 75.3784Z" fill="#CED7E2"/>
<path d="M128.636 60.5668L124.881 61.1154C124.66 61.1154 124.549 61.0057 124.439 60.896L124.329 60.4571L121.899 51.0217L121.678 49.2663L119.248 60.2377L119.138 60.7863C119.138 61.0057 118.917 61.1154 118.696 61.0057L115.493 60.6765H115.162C114.941 60.6765 114.83 60.4571 114.83 60.2377L114.941 59.7988L117.37 44.2195L117.481 43.5612C117.481 43.4515 117.591 43.3418 117.812 43.3418H125.433C125.543 43.3418 125.764 43.4515 125.764 43.5612L125.875 44.1098V44.2195L128.967 59.7988V60.0183C128.967 60.3474 128.857 60.4571 128.636 60.5668Z" fill="#DDE1F0"/>
<path d="M125.875 47.0721C124.881 46.6332 124.108 45.975 123.445 45.0972C123.335 44.9875 123.445 44.8778 123.556 44.7681C123.666 44.6584 123.777 44.7681 123.887 44.8778C124.439 45.7555 125.102 46.3041 125.986 46.6332C126.096 46.7429 126.206 46.8527 126.096 46.9624C126.096 46.9624 125.986 47.0721 125.875 47.0721Z" fill="#C5CCDE"/>
<path d="M117.591 47.0721C118.585 46.6332 119.358 45.975 120.021 45.0972C120.131 44.9875 120.021 44.8778 119.91 44.7681C119.8 44.6584 119.689 44.7681 119.579 44.8778C119.027 45.7555 118.364 46.3041 117.481 46.6332C117.37 46.7429 117.26 46.8527 117.37 46.9624C117.37 46.9624 117.481 47.0721 117.591 47.0721Z" fill="#C5CCDE"/>
<path d="M121.678 47.95C121.568 47.95 121.457 47.8403 121.457 47.7306V44.4392C121.457 44.3294 121.568 44.2197 121.678 44.2197C121.788 44.2197 121.899 44.3294 121.899 44.4392V47.7306C121.899 47.8403 121.788 47.95 121.678 47.95Z" fill="#C5CCDE"/>
<path d="M125.874 44.3299H117.37L117.481 43.6716C117.481 43.5619 117.591 43.4521 117.812 43.4521H125.433C125.543 43.4521 125.764 43.5619 125.764 43.6716L125.874 44.3299Z" fill="#C5CCDE"/>
<path d="M119.138 60.3473L119.027 60.8959C119.027 61.1153 118.806 61.225 118.585 61.1153L115.382 60.7862H115.051C114.83 60.7862 114.72 60.5667 114.72 60.3473L114.83 59.9084L119.138 60.3473Z" fill="#C5CCDE"/>
<path d="M128.636 60.5666L124.88 61.1152C124.659 61.1152 124.549 61.0055 124.439 60.8958L124.328 60.4569L128.856 60.0181V60.2375C128.967 60.3472 128.856 60.4569 128.636 60.5666Z" fill="#C5CCDE"/>
<g filter="url(#filter2_d_82_5146)">
<path d="M101.688 89.8624H61.4104C58.0981 89.8624 55.4482 87.2302 55.4482 83.9398V34.9797C55.4482 31.6894 58.0981 29.0571 61.4104 29.0571H101.688C105 29.0571 107.65 31.6894 107.65 34.9797V83.9398C107.518 87.2302 104.868 89.8624 101.688 89.8624Z" fill="white"/>
</g>
<path d="M91.3537 73.0158H63.3978C62.6029 73.0158 61.9404 72.3578 61.9404 71.5681C61.9404 70.7784 62.6029 70.1204 63.3978 70.1204H91.3537C92.1487 70.1204 92.8111 70.7784 92.8111 71.5681C92.8111 72.3578 92.1487 73.0158 91.3537 73.0158Z" fill="#CED7E2"/>
<path d="M75.7196 81.3076H63.3978C62.6029 81.3076 61.9404 80.6495 61.9404 79.8599C61.9404 79.0702 62.6029 78.4121 63.3978 78.4121H75.7196C76.5146 78.4121 77.177 79.0702 77.177 79.8599C77.0445 80.6495 76.5146 81.3076 75.7196 81.3076Z" fill="#CED7E2"/>
<path d="M98.1108 54.0636C97.9783 53.8004 97.8458 53.5372 97.7133 53.4056C97.1834 52.7475 96.5209 52.0894 95.3285 51.6946C93.7386 51.1681 92.4136 51.0365 91.2212 50.9049C90.9562 50.9049 90.5587 50.9049 90.2938 50.7733C86.7165 50.3785 83.8016 49.852 77.442 41.9552C76.7795 41.1655 76.5146 40.3759 75.7196 39.5862C75.0571 38.9281 73.8647 39.7178 72.4073 39.981C72.1423 40.1126 71.7448 40.1126 71.4799 40.1126C70.2874 40.1126 68.9625 39.981 67.7701 39.8494C66.0477 39.7178 67.1076 38.7965 64.9877 51.6946C64.8552 52.6159 64.7227 53.6688 64.5903 54.5901C64.5903 55.3798 64.4578 56.3011 64.5903 57.0907C64.5903 57.4856 64.5903 58.012 65.1202 58.012C70.5524 58.5385 73.9972 58.2753 82.6092 58.2753C86.9814 58.2753 91.2212 58.2752 95.461 57.4856L96.5209 57.354C97.3158 57.2223 98.3758 56.9591 98.3758 56.3011C98.5083 55.643 98.3758 54.8533 98.1108 54.0636Z" fill="url(#paint2_linear_82_5146)"/>
<path d="M91.3537 50.9057L90.4263 53.8012C84.8616 53.538 79.1645 50.1161 76.2496 45.6412C75.1897 44.0619 74.3947 42.3509 73.2023 41.0348C73.2023 41.0348 72.8048 40.6399 72.4073 40.2451C73.8648 39.9819 74.9247 39.0606 75.7197 39.8502C76.2496 40.3767 76.5146 40.9031 76.9121 41.4296C77.0446 41.5612 77.1771 41.8244 77.3096 41.956L77.4421 42.0877C77.8395 42.6141 78.237 43.009 78.6345 43.4038C78.767 43.5354 78.8995 43.667 79.032 43.7986C79.4294 44.3251 79.8269 44.7199 80.2244 45.1148C80.3569 45.2464 80.4894 45.378 80.6219 45.5096C81.0193 45.9044 81.4168 46.2993 81.8143 46.6941C81.9468 46.8257 82.0793 46.9574 82.2118 47.089C82.6093 47.4838 83.0067 47.747 83.4042 48.0103C83.5367 48.1419 83.8017 48.2735 83.9342 48.4051C84.1992 48.6683 84.5966 48.7999 84.8616 49.0632C85.1266 49.1948 85.2591 49.3264 85.5241 49.458C86.1865 49.7212 86.7165 49.9845 87.2465 50.2477C87.5115 50.3793 87.644 50.3793 87.9089 50.3793C88.8364 50.6425 89.6313 50.6425 90.5588 50.7741C90.6913 50.9057 90.9563 50.9057 91.3537 50.9057Z" fill="#526DFF"/>
<path d="M98.5083 56.5642C98.5083 57.2223 97.4484 57.4855 96.6534 57.6171L95.5935 57.7488C91.3537 58.5384 86.9815 58.5384 82.7417 58.5384C74.1297 58.5384 70.6849 58.8017 65.2527 58.2752C64.8553 58.2752 64.8553 57.7488 64.7228 57.3539C64.7228 56.5642 64.7228 55.6429 64.7228 54.8533C67.7701 55.1165 80.7543 55.7746 90.5588 54.7216C93.3411 54.4584 95.726 54.0636 97.7134 53.4055C97.8459 53.6687 97.9783 53.8004 98.1108 54.0636C98.3758 54.8533 98.5083 55.6429 98.5083 56.5642Z" fill="#DFECFD"/>
<path d="M98.1109 54.0637C96.1235 54.7218 94.0036 55.1167 91.8837 55.3799C91.4862 55.3799 91.2213 55.3799 90.9563 55.2483C90.8238 55.1167 90.6913 54.8534 90.6913 54.7218C90.6913 54.5902 90.6913 54.4586 90.6913 54.4586C90.5588 53.2741 90.4263 52.0895 90.5588 50.905C92.0162 51.0366 93.6061 51.1683 95.5935 51.8263C96.7859 52.2212 97.4484 52.7476 97.9784 53.5373C97.8459 53.5373 97.9784 53.8005 98.1109 54.0637Z" fill="#DFECFD"/>
<path d="M77.3097 41.8236C77.3097 41.9552 77.3097 41.9552 77.3097 41.8236L75.8522 43.0081C75.8522 43.0081 75.7197 43.1397 75.5873 43.1397C75.4548 43.1397 75.3223 43.1397 75.3223 43.0081C75.1898 42.8765 75.1898 42.6133 75.3223 42.4816L76.7797 41.2971C76.7797 41.2971 76.7797 41.2971 76.9122 41.2971C77.0447 41.5603 77.1772 41.692 77.3097 41.8236Z" fill="#DFECFD"/>
<path d="M78.9 43.7979C78.9 43.7979 78.9 43.9296 78.7675 43.9296C78.3701 44.456 77.8401 44.8508 77.3101 45.2457C77.3101 45.2457 77.1776 45.3773 77.0451 45.3773C76.9126 45.3773 76.7802 45.3773 76.7802 45.2457C76.6477 45.1141 76.6477 44.8508 76.7802 44.7192C77.3101 44.3244 77.7076 43.9295 78.2376 43.4031C78.3701 43.2715 78.3701 43.2715 78.5026 43.2715C78.635 43.5347 78.7675 43.6663 78.9 43.7979Z" fill="#DFECFD"/>
<path d="M80.4889 45.5089C80.4889 45.6405 80.4889 45.6405 80.3564 45.6405C79.8264 46.1669 79.429 46.6934 78.899 47.0882C78.7665 47.2198 78.7665 47.2198 78.634 47.2198C78.5015 47.2198 78.5015 47.2198 78.369 47.0882C78.2365 46.9566 78.2365 46.6934 78.369 46.5618C78.899 46.0353 79.2965 45.5089 79.8264 45.114C79.8264 45.114 79.9589 44.9824 80.0914 44.9824C80.2239 45.2456 80.3564 45.3773 80.4889 45.5089Z" fill="#DFECFD"/>
<path d="M82.2112 47.088C82.2112 47.2196 82.2112 47.2196 82.0787 47.2196C81.5488 47.6144 81.0188 48.1409 80.4888 48.7989C80.3563 48.9306 80.3563 48.9306 80.2239 48.9306C80.0914 48.9306 80.0914 48.9306 79.9589 48.7989C79.8264 48.6673 79.8264 48.4041 79.9589 48.2725C80.4888 47.6144 81.0188 47.088 81.5488 46.5615H81.6813C81.8138 46.8247 81.9463 47.088 82.2112 47.088Z" fill="#DFECFD"/>
<path d="M83.8021 48.5357C83.4047 49.1938 83.0072 49.8519 82.7422 50.5099C82.7422 50.6415 82.6097 50.6415 82.4772 50.6415H82.3447C82.2122 50.5099 82.0797 50.3783 82.2122 50.1151C82.6097 49.457 82.8747 48.799 83.2722 48.1409C83.2722 48.1409 83.2722 48.0093 83.4047 48.0093C83.5372 48.2725 83.6696 48.4041 83.8021 48.5357Z" fill="#DFECFD"/>
<path d="M85.3916 49.4571L85.1266 51.5629C85.1266 51.6945 84.9941 51.8261 84.7291 51.8261C84.5966 51.8261 84.4641 51.5629 84.4641 51.4313L84.8616 49.1939C84.8616 49.1939 84.8616 49.0623 84.9941 49.0623C84.9941 49.1939 85.1266 49.3255 85.3916 49.4571Z" fill="#DFECFD"/>
<path d="M87.7769 50.3787C87.6444 51.0368 87.6444 51.5632 87.5119 52.2213C87.5119 52.3529 87.3794 52.4845 87.1144 52.4845C87.1144 52.4845 87.1144 52.4845 86.9819 52.4845C86.8494 52.4845 86.7169 52.2213 86.7169 52.0897C86.8494 51.4316 86.9819 50.9051 86.9819 50.2471C87.2469 50.2471 87.5119 50.3787 87.7769 50.3787Z" fill="#DFECFD"/>
<path d="M70.8175 48.5358C72.3541 48.5358 73.5998 47.2984 73.5998 45.7719C73.5998 44.2455 72.3541 43.0081 70.8175 43.0081C69.2809 43.0081 68.0352 44.2455 68.0352 45.7719C68.0352 47.2984 69.2809 48.5358 70.8175 48.5358Z" fill="white"/>
<path d="M70.8174 46.9564C71.476 46.9564 72.0099 46.4261 72.0099 45.7719C72.0099 45.1177 71.476 44.5874 70.8174 44.5874C70.1589 44.5874 69.625 45.1177 69.625 45.7719C69.625 46.4261 70.1589 46.9564 70.8174 46.9564Z" fill="#526DFF"/>
<g filter="url(#filter3_d_82_5146)">
<path d="M124.087 97.6563C123.755 99.0826 123.314 100.399 122.761 101.715C122.651 102.045 122.54 102.264 122.319 102.593C120.442 106.214 117.46 109.176 113.815 110.932C113.373 111.151 112.932 111.371 112.6 111.48C109.066 112.907 105.09 113.455 101.114 112.577C90.6214 110.383 83.8843 100.179 86.0932 89.7567C88.3022 79.3339 98.5735 72.6413 109.066 74.8356C112.821 75.6035 116.135 77.469 118.896 80.1021C123.424 84.7101 125.412 91.2929 124.087 97.6563Z" fill="url(#paint3_linear_82_5146)"/>
</g>
<path d="M122.746 101.705C122.636 102.034 122.525 102.253 122.304 102.582C120.427 106.203 117.445 109.165 113.8 110.921C113.358 111.14 112.916 111.359 112.585 111.469L99 97.9744L102.313 98.0841L105.848 98.1938L108.388 96.4384C108.388 96.4384 110.376 93.0372 110.266 92.8178C110.155 92.5984 107.946 89.1973 107.946 89.1973L110.376 89.6361L122.746 101.705Z" fill="url(#paint4_linear_82_5146)"/>
<path d="M113.137 99.8394L110.266 96.9869C112.475 93.6954 111.591 89.3069 108.278 87.1126C104.964 84.9184 100.546 85.7961 98.3375 89.0875C96.1286 92.3789 97.0121 96.7674 100.326 98.9617C102.755 100.498 105.848 100.498 108.167 98.9617L111.039 101.814C111.591 102.363 112.475 102.363 113.027 101.814C113.69 101.266 113.69 100.388 113.137 99.8394ZM101.209 96.1091C99.5524 94.4634 99.5524 91.7206 101.209 90.0749C102.866 88.4292 105.627 88.4292 107.284 90.0749C108.94 91.7206 108.94 94.4634 107.284 96.1091C105.627 97.7548 102.866 97.7548 101.209 96.1091Z" fill="url(#paint5_linear_82_5146)"/>
<defs>
<filter id="filter0_d_82_5146" x="0" y="25.2104" width="83.1024" height="89.5312" filterUnits="userSpaceOnUse" color-interpolation-filters="sRGB">
<feFlood flood-opacity="0" result="BackgroundImageFix"/>
<feColorMatrix in="SourceAlpha" type="matrix" values="0 0 0 0 0 0 0 0 0 0 0 0 0 0 0 0 0 0 127 0" result="hardAlpha"/>
<feOffset dy="11"/>
<feGaussianBlur stdDeviation="11"/>
<feColorMatrix type="matrix" values="0 0 0 0 0.397708 0 0 0 0 0.47749 0 0 0 0 0.575 0 0 0 0.18 0"/>
<feBlend mode="normal" in2="BackgroundImageFix" result="effect1_dropShadow_82_5146"/>
<feBlend mode="normal" in="SourceGraphic" in2="effect1_dropShadow_82_5146" result="shape"/>
</filter>
<filter id="filter1_d_82_5146" x="80.9023" y="25.2104" width="83.098" height="89.5312" filterUnits="userSpaceOnUse" color-interpolation-filters="sRGB">
<feFlood flood-opacity="0" result="BackgroundImageFix"/>
<feColorMatrix in="SourceAlpha" type="matrix" values="0 0 0 0 0 0 0 0 0 0 0 0 0 0 0 0 0 0 127 0" result="hardAlpha"/>
<feOffset dy="11"/>
<feGaussianBlur stdDeviation="11"/>
<feColorMatrix type="matrix" values="0 0 0 0 0.397708 0 0 0 0 0.47749 0 0 0 0 0.575 0 0 0 0.18 0"/>
<feBlend mode="normal" in2="BackgroundImageFix" result="effect1_dropShadow_82_5146"/>
<feBlend mode="normal" in="SourceGraphic" in2="effect1_dropShadow_82_5146" result="shape"/>
</filter>
<filter id="filter2_d_82_5146" x="33.4482" y="18.0571" width="96.2019" height="104.805" filterUnits="userSpaceOnUse" color-interpolation-filters="sRGB">
<feFlood flood-opacity="0" result="BackgroundImageFix"/>
<feColorMatrix in="SourceAlpha" type="matrix" values="0 0 0 0 0 0 0 0 0 0 0 0 0 0 0 0 0 0 127 0" result="hardAlpha"/>
<feOffset dy="11"/>
<feGaussianBlur stdDeviation="11"/>
<feColorMatrix type="matrix" values="0 0 0 0 0.397708 0 0 0 0 0.47749 0 0 0 0 0.575 0 0 0 0.18 0"/>
<feBlend mode="normal" in2="BackgroundImageFix" result="effect1_dropShadow_82_5146"/>
<feBlend mode="normal" in="SourceGraphic" in2="effect1_dropShadow_82_5146" result="shape"/>
</filter>
<filter id="filter3_d_82_5146" x="77.6738" y="71.4189" width="54.8169" height="54.5813" filterUnits="userSpaceOnUse" color-interpolation-filters="sRGB">
<feFlood flood-opacity="0" result="BackgroundImageFix"/>
<feColorMatrix in="SourceAlpha" type="matrix" values="0 0 0 0 0 0 0 0 0 0 0 0 0 0 0 0 0 0 127 0" result="hardAlpha"/>
<feOffset dy="5"/>
<feGaussianBlur stdDeviation="4"/>
<feColorMatrix type="matrix" values="0 0 0 0 0.1125 0 0 0 0 0.295916 0 0 0 0 1 0 0 0 0.22 0"/>
<feBlend mode="normal" in2="BackgroundImageFix" result="effect1_dropShadow_82_5146"/>
<feBlend mode="normal" in="SourceGraphic" in2="effect1_dropShadow_82_5146" result="shape"/>
</filter>
<linearGradient id="paint0_linear_82_5146" x1="24.5766" y1="92.1166" x2="28.4436" y2="92.1166" gradientUnits="userSpaceOnUse">
<stop stop-color="#FF66A9"/>
<stop offset="1" stop-color="#F53689"/>
</linearGradient>
<linearGradient id="paint1_linear_82_5146" x1="125.834" y1="13.1196" x2="129.187" y2="13.1196" gradientUnits="userSpaceOnUse">
<stop stop-color="#83A6FF"/>
<stop offset="1" stop-color="#5A78FF"/>
</linearGradient>
<linearGradient id="paint2_linear_82_5146" x1="64.6256" y1="49.0247" x2="98.4631" y2="49.0247" gradientUnits="userSpaceOnUse">
<stop stop-color="#83A6FF"/>
<stop offset="1" stop-color="#5A78FF"/>
</linearGradient>
<linearGradient id="paint3_linear_82_5146" x1="85.6589" y1="93.7273" x2="124.511" y2="93.7273" gradientUnits="userSpaceOnUse">
<stop stop-color="#83A6FF"/>
<stop offset="1" stop-color="#5A78FF"/>
</linearGradient>
<linearGradient id="paint4_linear_82_5146" x1="107.982" y1="97.0037" x2="114.698" y2="103.764" gradientUnits="userSpaceOnUse">
<stop stop-color="#4F6AFF"/>
<stop offset="1" stop-color="#657EFF" stop-opacity="0"/>
</linearGradient>
<linearGradient id="paint5_linear_82_5146" x1="111.364" y1="100.156" x2="101.868" y2="90.5973" gradientUnits="userSpaceOnUse">
<stop offset="0.0113208" stop-color="#C2D1FF"/>
<stop offset="1" stop-color="white"/>
</linearGradient>
</defs>
</svg>
