<svg width="121" height="144" viewBox="0 0 121 144" fill="none" xmlns="http://www.w3.org/2000/svg">
<path d="M80.5322 22.6286C81.3197 22.6286 81.9581 21.9927 81.9581 21.2083C81.9581 20.424 81.3197 19.7881 80.5322 19.7881C79.7448 19.7881 79.1064 20.424 79.1064 21.2083C79.1064 21.9927 79.7448 22.6286 80.5322 22.6286Z" fill="url(#paint0_linear_82_5076)"/>
<path d="M99.2189 31.0485C100.206 31.0485 101.083 30.2837 101.083 29.1912C101.083 28.208 100.316 27.334 99.2189 27.334C98.2318 27.334 97.3544 28.0987 97.3544 29.1912C97.3544 30.2837 98.2318 31.0485 99.2189 31.0485Z" fill="url(#paint1_linear_82_5076)"/>
<path d="M11.8294 123.53C12.8165 123.53 13.6939 122.765 13.6939 121.673C13.6939 120.689 12.9261 119.815 11.8294 119.815C10.8423 119.815 9.96484 120.58 9.96484 121.673C9.96484 122.656 10.7326 123.53 11.8294 123.53Z" fill="url(#paint2_linear_82_5076)"/>
<path d="M14.6397 34.1855C15.619 33.8684 16.1548 32.8206 15.8365 31.8451C15.5182 30.8697 14.4663 30.3359 13.487 30.653C12.5077 30.97 11.9719 32.0178 12.2902 32.9933C12.6085 33.9688 13.6604 34.5025 14.6397 34.1855Z" fill="#EAEEF9"/>
<path d="M27.9658 123.625C28.6812 122.974 28.7312 121.868 28.0774 121.156C27.4236 120.443 26.3136 120.393 25.5982 121.044C24.8827 121.696 24.8328 122.801 25.4866 123.514C26.1404 124.227 27.2503 124.276 27.9658 123.625Z" fill="#EAEEF9"/>
<path opacity="0.1" d="M111 54.1563V95.3437C111 95.9992 111 96.5454 110.89 97.2009C110.342 101.899 107.6 106.05 103.432 108.454L67.6774 128.993C64.2774 130.959 60.2194 131.505 56.4903 130.522C55.0645 130.194 53.7484 129.648 52.5419 128.993L16.6774 108.344C13.9355 106.815 11.8516 104.521 10.5355 101.789C9.54839 99.8229 9 97.5287 9 95.2344V54.1563C9 51.9713 9.43871 49.8956 10.3161 47.9291C11.6323 45.0886 13.7161 42.6851 16.5677 41.0463L52.4323 20.5073C55.9419 18.5408 59.8903 17.9945 63.729 18.9778C65.0452 19.3055 66.3613 19.8518 67.6774 20.5073L103.432 41.0463C106.613 42.9036 108.916 45.7441 110.123 49.1308C110.671 50.6603 111 52.4083 111 54.1563Z" fill="#EAEEF9"/>
<path d="M99.268 80.4717C101.189 78.6904 101.317 75.764 99.524 73.8554C97.7315 71.9469 94.7866 71.8197 92.7379 73.601C90.8173 75.3823 90.6893 78.3087 92.4819 80.2172C94.2744 82.1258 97.2193 82.253 99.268 80.4717Z" fill="#EAEEF9"/>
<g filter="url(#filter0_d_82_5076)">
<path d="M81.4938 87.355L81.4938 111.118C81.4938 122.101 72.5382 131 61.4866 131C60.9149 131 60.4386 131 59.8669 130.905C49.5775 130.053 41.4794 121.532 41.4794 111.118L41.4794 87.355L49.9586 87.355L49.9586 111.118C49.9586 116.893 54.2459 121.627 59.7717 122.385C60.3433 122.479 60.8197 122.479 61.3913 122.479C67.6793 122.479 72.824 117.367 72.824 111.118L72.824 87.355L81.4938 87.355Z" fill="#E9368B"/>
</g>
<path d="M78.2544 87.355L78.2544 111.118C78.2544 121.532 70.1562 130.053 59.8668 130.905C59.2952 130.905 58.8188 131 58.2472 131C47.1956 131 38.24 122.101 38.24 111.118L38.24 87.355L46.7192 87.355L46.7192 111.118C46.7192 117.367 51.8639 122.479 58.1519 122.479C58.7236 122.479 59.1999 122.479 59.7715 122.385C65.2973 121.627 69.5846 116.799 69.5846 111.118L69.5846 87.355L78.2544 87.355Z" fill="url(#paint3_linear_82_5076)"/>
<path opacity="0.7" d="M40.8123 104.018C40.3359 104.018 39.9548 103.639 39.9548 103.166L39.9548 101.651C39.9548 101.178 40.3359 100.799 40.8123 100.799C41.2886 100.799 41.6697 101.178 41.6697 101.651L41.6697 103.166C41.6697 103.639 41.2886 104.018 40.8123 104.018Z" fill="#FF94C6"/>
<path opacity="0.7" d="M46.5282 124.846C46.3377 124.846 46.1471 124.751 45.9566 124.657C42.0504 121.154 39.8591 116.231 39.8591 111.118L39.8591 106.574C39.8591 106.1 40.2402 105.722 40.7166 105.722C41.1929 105.722 41.574 106.1 41.574 106.574L41.574 111.118C41.574 115.757 43.5748 120.207 47.0998 123.331C47.4809 123.615 47.4809 124.183 47.1951 124.562C47.0046 124.751 46.814 124.846 46.5282 124.846Z" fill="#FF94C6"/>
<path opacity="0.7" d="M58.2471 129.296C55.1032 129.296 52.0544 128.538 49.2915 127.024C48.9104 126.834 48.7199 126.266 48.9104 125.793C49.101 125.414 49.6726 125.225 50.149 125.414C52.6261 126.74 55.389 127.497 58.2471 127.497C58.7235 127.497 59.1999 127.497 59.581 127.402C61.8675 127.213 63.9635 126.645 65.9642 125.509C66.3453 125.319 66.9169 125.414 67.1075 125.887C67.298 126.266 67.2027 126.834 66.7264 127.024C64.5351 128.16 62.1533 128.917 59.6762 129.106C59.2951 129.296 58.7235 129.296 58.2471 129.296Z" fill="#FF94C6"/>
<path d="M49.9585 87.355L38.24 87.355L38.24 97.7692L49.9585 97.7692L49.9585 87.355Z" fill="#DDE6F2"/>
<path d="M49.9585 87.355L38.24 87.355L38.24 97.7692L49.9585 97.7692L49.9585 87.355Z" fill="#CED7E2"/>
<path d="M46.7192 87.355L38.24 87.355L38.24 97.7692L46.7192 97.7692L46.7192 87.355Z" fill="white"/>
<path d="M88.6448 87.355L76.9263 87.355L76.9263 97.7692L88.6448 97.7692L88.6448 87.355Z" fill="#E8ECF7"/>
<path d="M81.3979 87.355L69.6794 87.355L69.6794 97.7692L81.3979 97.7692L81.3979 87.355Z" fill="#CED7E2"/>
<path d="M76.3672 87.355L67.888 87.355L67.7927 97.7692L76.3672 97.7692L76.3672 87.355Z" fill="#E8ECF7"/>
<path d="M78.254 87.355L69.7747 87.355L69.6794 97.7692L78.254 97.7692L78.254 87.355Z" fill="white"/>
<g filter="url(#filter1_d_82_5076)">
<path d="M98.4675 49.5292C98.4675 54.8653 96.1454 59.6246 92.5172 62.9416C91.5013 63.8069 90.4854 64.6722 89.1792 65.3933C86.4218 66.9797 83.374 67.845 80.0361 67.845C76.6981 67.845 73.5052 66.9797 70.8929 65.3933C70.4575 65.1049 70.0221 64.9607 69.5867 64.6722C64.7975 61.3552 61.6046 55.8749 61.6046 49.6735C61.6046 39.5781 69.877 31.3577 80.0361 31.3577C90.1951 31.3577 98.4675 39.4339 98.4675 49.5292Z" fill="#D7DCEB"/>
</g>
<path d="M92.3729 62.3649C91.6472 60.9227 90.4862 59.4805 88.8898 58.6152C88.1641 58.1825 87.2933 58.0383 86.2774 57.8941L85.5518 57.8941C83.9554 57.8941 83.8102 57.6057 83.8102 57.6057L83.8102 55.0097C84.681 54.2886 85.4066 53.5675 85.9872 52.7022C86.5677 51.8369 87.0031 50.9716 87.2933 49.9621C88.3092 49.6736 89.0349 48.8083 88.8898 47.7988C88.8898 47.3661 88.5995 46.9335 88.5995 46.5008C88.5995 46.2124 88.5995 46.0682 88.5995 45.7797C88.5995 45.6355 88.5995 45.4913 88.5995 45.3471C88.5995 45.2028 88.5995 45.0586 88.5995 44.9144C88.4544 44.1933 88.3092 43.328 87.7287 42.4627C86.4226 40.011 83.8102 38.4246 80.9076 38.4246C80.3271 38.4246 79.7466 38.5688 79.1661 38.5688C78.1502 38.8572 77.1343 39.2899 76.2635 39.8667C76.1184 40.011 75.9732 40.1552 75.8281 40.2994C75.8281 40.2994 75.683 40.2994 75.683 40.4436C74.8122 41.3089 74.0865 42.3185 73.6512 43.6164C73.2158 44.7702 73.2158 46.0682 73.3609 47.2219C73.3609 47.2219 73.3609 47.2219 73.3609 47.3661C73.3609 47.3661 73.3609 47.3661 73.3609 47.5103C73.3609 47.7988 73.506 47.6546 73.3609 47.943C73.3609 48.0872 73.2158 48.0872 73.2158 48.2314C73.0706 48.5199 72.9255 49.0968 73.0706 49.6736C73.506 50.8274 74.2317 50.6832 74.9573 51.26C74.9573 51.26 74.9573 51.26 74.8122 51.4043L73.9414 51.6927C70.3132 52.8464 70.6035 55.2982 72.0548 57.173C72.6353 57.8941 73.3609 57.894 74.8122 58.1825C74.3768 58.1825 72.7804 59.6247 72.6353 59.7689C71.0388 61.0669 70.0229 62.9418 69.7327 64.6724C69.7327 64.8166 69.7327 64.8166 69.7327 64.9608C70.1681 65.2493 70.6034 65.5377 71.0388 65.6819L89.4703 65.6819C90.6313 64.9608 91.7924 64.2397 92.8083 63.2302C92.518 62.7975 92.3729 62.5091 92.3729 62.3649ZM78.4404 57.173C78.1502 56.8846 78.005 56.8846 77.8599 56.7403C77.5697 56.5961 77.4245 56.4519 77.1343 56.3077C76.9891 56.3077 76.9891 56.1635 76.844 56.1635C76.1184 55.7308 75.3927 55.2982 75.3927 54.7213C75.3927 54.4328 75.683 54.0002 76.1184 53.7118C76.2635 54.0002 76.5538 54.2886 76.844 54.5771C77.1343 54.7213 77.2794 55.0097 77.5697 55.1539C77.7148 55.2982 77.8599 55.4424 78.005 55.4424L78.1502 55.4424C78.1502 55.4424 78.2953 55.4424 78.2953 55.5866L78.2953 57.173L78.4404 57.173Z" fill="white"/>
<path d="M92.5175 62.9417C89.1795 65.9703 84.8256 67.8451 80.0364 67.8451C76.1179 67.8451 72.4896 66.6914 69.587 64.6723C69.587 64.5281 69.587 64.5281 69.587 64.3839C69.8773 62.509 70.8932 60.6342 72.4896 59.3362C72.7799 59.192 74.899 57.8189 75.1893 57.8189C73.8831 57.5304 72.6348 57.4613 72.0543 56.7402L74.8117 57.3171C75.9727 59.0478 78.0045 60.0573 80.3266 60.0573C82.2133 60.0573 83.9549 59.3362 85.1159 58.0382C85.261 58.0382 85.4062 58.0382 85.5513 58.0382C85.6964 58.0382 85.9867 58.0382 86.2769 58.0382C87.2928 58.0382 88.1636 58.3267 88.8893 58.6151C90.4857 59.3362 91.6467 60.7784 92.3724 62.3648C92.3724 62.509 92.5175 62.7975 92.5175 62.9417Z" fill="url(#paint4_linear_82_5076)"/>
<path d="M83.8097 55.1538L83.8097 57.6055L76.6984 57.894L77.1338 56.3076C77.2789 56.3076 77.2789 56.4518 77.424 56.4518C77.7143 56.596 77.8594 56.7402 78.1497 56.8844C78.2948 57.0286 78.4399 57.0286 78.5851 57.1729C78.5851 57.1729 78.5851 57.1729 78.7302 57.3171L78.7302 55.7307C78.7302 55.7307 78.5851 55.7307 78.5851 55.5865C79.7461 56.1633 81.4876 56.4518 83.8097 55.1538Z" fill="url(#paint5_linear_82_5076)"/>
<path d="M88.4539 45.3469C87.0026 45.7796 85.5513 46.068 84.1 45.9238C81.7779 45.7796 79.4558 44.7701 77.7143 43.1836C77.1338 44.9143 75.6825 46.2122 73.9409 46.9333C73.6506 47.0776 73.5055 47.0776 73.2153 47.2218C73.2153 47.2218 73.2153 47.2218 73.2153 47.0776C73.0701 45.7796 73.2153 44.6258 73.5055 43.3279C73.9409 42.1741 74.6666 41.0204 75.5373 40.155C75.5373 40.155 75.6825 40.155 75.6825 40.0108C75.8276 39.8666 75.9727 39.7224 76.1179 39.5782C76.9886 39.0013 78.0045 38.5686 79.0204 38.2802C79.601 38.136 80.1815 38.136 80.762 38.136C83.6646 38.136 86.2769 39.7224 87.5831 42.1741C88.0185 43.1836 88.3087 43.9047 88.4539 44.6258C88.4539 45.0585 88.4539 45.2027 88.4539 45.3469Z" fill="#1C3754"/>
<path d="M79.4546 61.9322C78.8741 62.6533 77.7131 62.7976 76.6972 62.6533C77.7131 61.6438 77.1326 58.3268 73.5043 58.7594C68.4248 57.7499 69.0053 52.7022 73.9397 51.1158L74.8105 50.8274L74.9556 50.9716C75.391 51.9811 75.8264 52.8465 76.4069 53.5675C74.3751 55.2982 77.1326 55.7308 78.5839 57.0288C79.5998 57.7499 80.6157 60.6343 79.4546 61.9322Z" fill="#1C3754"/>
<path d="M98.4675 49.5292C98.4675 54.8653 96.1454 59.6246 92.5172 62.9416C89.1792 65.9702 84.8253 67.845 80.0361 67.845C76.1176 67.845 72.4893 66.6913 69.5867 64.6722C64.7975 61.3552 61.6046 55.8749 61.6046 49.6735C61.6046 39.5781 69.877 31.3577 80.0361 31.3577C90.1951 31.3577 98.4675 39.4339 98.4675 49.5292Z" stroke="white" stroke-width="1.492" stroke-miterlimit="10" stroke-linecap="round" stroke-linejoin="round"/>
<path d="M57.9801 52.3419C57.9801 57.0399 56.0891 61.4246 53.0949 64.5566C52.7798 64.8698 52.6222 65.0264 52.307 65.3396C49.1553 68.3149 44.9004 70.0375 40.1728 70.0375C36.3907 70.0375 32.9238 68.9413 29.9297 66.9056C29.1417 66.2792 28.3538 65.6528 27.5658 65.0264C24.2565 61.7378 22.2079 57.3531 22.2079 52.3419C22.2079 42.4763 30.2448 34.4897 40.0152 34.4897C49.9432 34.4897 57.9801 42.4763 57.9801 52.3419Z" fill="#E9F0F8"/>
<g filter="url(#filter2_d_82_5076)">
<path d="M57.9801 52.3419C57.9801 57.5097 55.7739 62.2076 52.307 65.3396C49.1553 68.3149 44.9004 70.0375 40.1728 70.0375C36.3907 70.0375 32.9238 68.9413 29.9297 66.9056C25.202 63.7736 22.2079 58.2927 22.2079 52.3419C22.2079 42.4763 30.2448 34.4897 40.0152 34.4897C49.7856 34.4897 57.9801 42.4763 57.9801 52.3419Z" fill="#D7DCEB"/>
</g>
<path d="M52.9373 64.5565C52.6221 64.8697 52.4645 65.0263 52.1494 65.3395C48.9976 68.3149 44.7428 70.0374 40.0152 70.0374C36.2331 70.0374 32.7662 68.9413 29.772 66.9055C28.9841 66.2791 28.1961 65.6527 27.4082 65.0263C27.7234 64.5565 28.5113 64.2433 29.9296 63.6169L30.5599 63.4603C31.6631 62.9905 33.0813 62.5207 34.9724 61.7377C35.2876 61.5811 35.4451 61.4245 35.7603 61.2679C35.9179 61.1113 35.9179 60.9548 36.0755 60.7982C36.2331 60.6416 36.2331 60.3284 36.2331 60.0152L36.2331 56.4134L36.0755 56.2568C35.7603 55.787 35.6027 55.3172 35.4451 54.6908L35.13 54.5342C34.1844 54.6908 34.342 53.7512 34.0269 51.8721C33.8693 51.0891 34.0269 50.9325 34.342 50.7759L34.6572 50.3061C34.0269 48.7401 33.7117 47.4873 33.7117 46.3911C33.7117 44.6685 34.4996 43.4158 35.6027 42.946C34.9724 41.6932 34.9724 41.2234 34.9724 41.2234C34.9724 41.2234 38.7545 41.8498 40.0152 41.5366C41.591 41.2234 44.1124 41.5366 45.0579 43.729C46.6338 44.3554 47.2642 45.2949 47.4218 46.3911C47.5793 48.1137 46.6338 49.9929 46.4762 50.6193C46.4762 50.6193 46.4762 50.6193 46.4762 50.7759C46.7914 50.9325 46.7914 51.0891 46.7914 51.7155C46.6338 53.438 46.6338 54.6908 45.6883 54.3776L44.9004 55.787C44.9004 55.9436 44.9004 56.1002 44.9004 56.1002C44.9004 56.4134 44.9004 56.8832 44.9004 59.8586C44.9004 60.1718 45.0579 60.485 45.2155 60.7982C45.2155 60.9548 45.3731 60.9548 45.3731 61.1114C45.5307 61.2679 45.8459 61.4245 46.0035 61.5811C48.2097 62.5207 49.628 62.9905 50.8887 63.4603C51.8342 63.9301 52.6221 64.2433 52.9373 64.5565Z" fill="white"/>
<path d="M52.9373 64.5566C52.6221 64.8698 52.4645 65.0264 52.1494 65.3396C48.9976 68.315 44.7428 70.0376 40.0152 70.0376C36.2331 70.0376 32.7662 68.9414 29.772 66.9056C28.9841 66.2792 28.1961 65.6528 27.4082 65.0264C27.7234 64.5566 28.5113 64.2434 29.9296 63.617L30.5599 63.4604C31.6631 62.9906 33.0813 62.5209 34.9724 61.7379C35.2876 61.5813 35.4451 61.4247 35.7603 61.2681C36.8634 62.6774 38.5969 63.7736 40.4879 63.7736C42.379 63.7736 44.1124 62.8341 45.2155 61.4247C45.3731 61.5813 45.6883 61.7379 45.8459 61.8945C48.0521 62.834 49.4704 63.3038 50.7311 63.7736C51.8342 63.9302 52.6221 64.2434 52.9373 64.5566Z" fill="#A0B0C4"/>
<path d="M46.4762 50.6194C46.4762 50.1496 46.3186 49.6798 46.161 49.21C46.161 49.21 46.161 49.0534 46.0035 49.0534C45.3731 47.4874 43.7972 46.861 42.2214 46.861C38.2817 46.7044 37.9665 47.3308 36.7058 46.2346C37.021 46.861 37.1786 47.644 36.5482 48.7402C36.0755 49.5232 35.2875 49.8364 34.6572 50.1496C32.9237 46.078 33.7117 43.5725 35.6027 42.7895C34.9724 41.5367 34.9724 41.0669 34.9724 41.0669C34.9724 41.0669 38.7545 41.6933 40.0151 41.3801C41.591 41.0669 44.1124 41.3801 45.0579 43.5725C46.6338 44.1989 47.2642 45.1384 47.4217 46.2346C47.5793 47.9572 46.6338 49.8364 46.4762 50.6194Z" fill="#1C3754"/>
<path d="M36.2328 59.8588L36.2328 56.257L36.0752 56.1004L36.0752 55.9438C36.2328 56.257 36.548 56.5702 36.8631 56.8834L39.6997 58.9192C40.33 59.5456 41.2756 59.5456 42.0635 58.9192L44.7425 56.5702C44.9001 56.5702 44.9001 56.4136 45.0577 56.257C45.0577 56.5702 45.0577 57.04 45.0577 60.0154C45.0577 60.172 45.0577 60.3286 45.0577 60.4852L36.2328 60.4852C36.0752 60.172 36.2328 60.0154 36.2328 59.8588Z" fill="url(#paint6_linear_82_5076)"/>
<path d="M57.9801 52.3419C57.9801 57.5097 55.7739 62.2076 52.307 65.3396C49.1553 68.3149 44.9004 70.0375 40.1728 70.0375C36.3907 70.0375 32.9238 68.9413 29.9297 66.9056C25.202 63.7736 22.2079 58.2927 22.2079 52.3419C22.2079 42.4763 30.2448 34.4897 40.0152 34.4897C49.7856 34.4897 57.9801 42.4763 57.9801 52.3419Z" stroke="white" stroke-width="1.3062" stroke-miterlimit="10" stroke-linecap="round" stroke-linejoin="round"/>
<path d="M78.4665 28.8522C78.4665 33.5501 76.5754 37.9349 73.5813 41.0668C73.2661 41.38 73.1085 41.5366 72.7933 41.8498C69.6416 44.8252 65.3867 46.5478 60.6591 46.5478C56.877 46.5478 53.4101 45.4516 50.416 43.4158C49.628 42.7894 48.8401 42.163 48.0522 41.5366C44.7428 38.2481 42.6942 33.8633 42.6942 28.8522C42.6942 18.9865 50.7311 11 60.5015 11C70.4295 11.1566 78.4665 18.9865 78.4665 28.8522Z" fill="#E9F0F8"/>
<g filter="url(#filter3_d_82_5076)">
<path d="M78.4665 28.8522C78.4665 34.0199 76.2602 38.7179 72.7933 41.8498C69.6416 44.8252 65.3867 46.5478 60.6591 46.5478C56.877 46.5478 53.4101 45.4516 50.416 43.4158C45.6884 40.2838 42.6942 34.8029 42.6942 28.8522C42.6942 18.9865 50.7311 11 60.5015 11C70.2719 11 78.4665 18.9865 78.4665 28.8522Z" fill="#D7DCEB"/>
</g>
<path d="M73.4237 41.0668C73.1086 41.38 72.951 41.5366 72.6358 41.8498C69.4841 44.8251 65.2292 46.5477 60.5016 46.5477C56.7195 46.5477 53.2526 45.4515 50.2585 43.4157C49.4705 42.7893 48.6826 42.1629 47.8947 41.5366C48.2098 41.0668 48.9978 40.7536 50.416 40.1272L51.0464 39.9706C52.1495 39.5008 53.5678 39.031 55.4588 38.248C55.774 38.0914 55.9316 37.9348 56.2468 37.7782C56.4043 37.6216 56.4044 37.465 56.5619 37.3084C56.7195 37.1518 56.7195 36.8386 56.7195 36.5254L56.7195 32.9237L56.5619 32.7671C56.2468 32.2973 56.0892 31.8275 55.9316 31.2011L55.6164 31.0445C54.6709 31.2011 54.8285 30.2615 54.5133 28.3823C54.3557 27.5993 54.5133 27.4427 54.8285 27.2861L55.1437 26.8163C54.5133 25.2504 54.1981 23.9976 54.1981 22.9014C54.1981 21.1788 54.9861 19.926 56.0892 19.4562C55.4588 18.2034 55.4588 17.7336 55.4588 17.7336C55.4588 17.7336 59.2409 18.36 60.5016 18.0468C62.0775 17.7336 64.5989 18.0468 65.5444 20.2392C67.1203 20.8656 67.7506 21.8052 67.9082 22.9014C68.0658 24.624 67.1203 26.5031 66.9627 27.1295C66.9627 27.1295 66.9627 27.1295 66.9627 27.2861C67.2778 27.2861 67.2779 27.4427 67.2779 28.2257C67.1203 29.9483 67.1203 31.2011 66.1747 30.8879L65.3868 32.2973C65.3868 32.4539 65.3868 32.6105 65.3868 32.6105C65.3868 32.9237 65.3868 33.3935 65.3868 36.3688C65.3868 36.682 65.5444 36.9952 65.702 37.3084C65.702 37.465 65.8596 37.465 65.8596 37.6216C66.0172 37.7782 66.3323 37.9348 66.4899 38.0914C68.6961 39.031 70.1144 39.5008 71.3751 39.9706C72.3206 40.4404 72.951 40.7536 73.4237 41.0668Z" fill="white"/>
<path d="M73.4237 41.0666C73.1086 41.3798 72.951 41.5364 72.6358 41.8496C69.4841 44.825 65.2292 46.5476 60.5016 46.5476C56.7195 46.5476 53.2526 45.4514 50.2585 43.4156C49.4705 42.7892 48.6826 42.1628 47.8947 41.5364C48.2098 41.0666 48.9978 40.7534 50.416 40.127L51.0464 39.9704C52.1495 39.5007 53.5678 39.0309 55.4588 38.2479C55.774 38.0913 55.9316 37.9347 56.2468 37.7781C57.3499 39.1875 59.0833 40.2836 60.9744 40.2836C62.8654 40.2836 64.5989 39.3441 65.702 37.9347C65.8596 38.0913 66.1747 38.2479 66.3323 38.4045C68.5385 39.3441 69.9568 39.8138 71.2175 40.2836C72.3206 40.4402 72.951 40.7534 73.4237 41.0666Z" fill="url(#paint7_linear_82_5076)"/>
<path d="M66.9625 27.1295C66.9625 26.6597 66.805 26.1899 66.6474 25.7201C66.6474 25.7201 66.6474 25.5635 66.4898 25.5635C65.7018 24.1542 64.126 23.5278 62.7077 23.5278C58.768 23.3712 58.4528 23.9976 57.1922 22.9014C57.5073 23.5278 57.6649 24.3108 57.0346 25.407C56.5618 26.1899 55.7739 26.5031 55.1435 26.8163C53.4101 22.7448 54.198 20.2392 56.089 19.4562C55.4587 18.2034 55.4587 17.7336 55.4587 17.7336C55.4587 17.7336 59.2408 18.36 60.5015 18.0468C62.0773 17.7336 64.5987 18.0468 65.5443 20.2392C67.1201 20.8656 67.7505 21.8052 67.9081 22.9014C68.0657 24.4674 67.1201 26.3465 66.9625 27.1295Z" fill="#1C3754"/>
<path d="M56.562 36.3688L56.562 32.7671L56.4044 32.6105L56.4044 32.4539C56.562 32.7671 56.8772 33.0802 57.1924 33.3934L60.0289 35.4292C60.6593 36.0556 61.6048 36.0556 62.3927 35.4292L65.0717 33.0802C65.2293 33.0802 65.2293 32.9237 65.3869 32.7671C65.3869 33.0802 65.3869 33.55 65.3869 36.5254C65.3869 36.682 65.3869 36.8386 65.3869 36.9952L56.562 36.9952C56.562 36.682 56.562 36.5254 56.562 36.3688Z" fill="url(#paint8_linear_82_5076)"/>
<path d="M78.4665 28.8522C78.4665 34.0199 76.2602 38.7179 72.7933 41.8498C69.6416 44.8252 65.3867 46.5478 60.6591 46.5478C56.877 46.5478 53.4101 45.4516 50.416 43.4158C45.6884 40.2838 42.6942 34.8029 42.6942 28.8522C42.6942 18.9865 50.7311 11 60.5015 11C70.2719 11 78.4665 18.9865 78.4665 28.8522Z" stroke="white" stroke-width="1.3062" stroke-miterlimit="10" stroke-linecap="round" stroke-linejoin="round"/>
<path d="M72.3618 81.6828L74.5075 81.6196L74.5987 85.0707C74.593 85.4077 75.1201 85.5057 75.2159 85.1505L77.2657 78.9694C77.3509 78.6536 77.1367 78.3427 76.7976 78.3371L74.334 78.3157L73.8542 74.2533C73.8201 73.9058 73.3115 73.8973 73.2661 74.2237L71.8936 81.0505C71.7978 81.4057 72.0624 81.6877 72.3618 81.6828Z" fill="url(#paint9_linear_82_5076)"/>
<path d="M76.7627 79.2585C76.723 79.2479 76.7124 79.2874 76.6726 79.2768L74.5985 79.2322C74.4687 79.2399 74.3311 79.1187 74.3737 78.9608C74.3659 78.8318 74.4879 78.6951 74.6468 78.7374L76.7209 78.782C76.8507 78.7742 76.9883 78.8955 76.9458 79.0534C76.9642 79.1429 76.8925 79.2507 76.7627 79.2585Z" fill="#96AEFF"/>
<path d="M72.386 80.8011L73.2853 75.4136C73.3065 75.3347 73.3675 75.2663 73.447 75.2874C73.5264 75.3086 73.5952 75.3692 73.574 75.4482L72.8734 80.8885C72.8414 81.0069 72.73 81.1042 72.6002 81.1119C72.4811 81.0802 72.3832 80.9695 72.386 80.8011Z" fill="#96AEFF"/>
<path d="M42.0355 81.4856L44.1812 81.4223L44.2724 84.8735C44.2667 85.2104 44.7938 85.3084 44.8896 84.9532L46.9394 78.7721C47.0246 78.4563 46.8104 78.1455 46.4713 78.1398L44.0077 78.1184L43.5279 74.0561C43.4938 73.7086 42.9852 73.7001 42.9398 74.0264L41.5673 80.8532C41.4716 81.2085 41.7361 81.4905 42.0355 81.4856Z" fill="url(#paint10_linear_82_5076)"/>
<path d="M46.4355 79.0612C46.3957 79.0506 46.3851 79.0901 46.3454 79.0795L44.2712 79.0349C44.1414 79.0427 44.0038 78.9214 44.0464 78.7635C44.0386 78.6345 44.1606 78.4978 44.3195 78.5401L46.3936 78.5847C46.5235 78.5769 46.6611 78.6982 46.6185 78.8561C46.6369 78.9456 46.5653 79.0535 46.4355 79.0612Z" fill="#96AEFF"/>
<path d="M42.0597 80.604L42.959 75.2166C42.9802 75.1376 43.0413 75.0693 43.1207 75.0904C43.2001 75.1116 43.2689 75.1722 43.2477 75.2511L42.5471 80.6915C42.5151 80.8099 42.4038 80.9072 42.2739 80.9149C42.1548 80.8832 42.0569 80.7725 42.0597 80.604Z" fill="#96AEFF"/>
<defs>
<filter id="filter0_d_82_5076" x="33.4794" y="84.355" width="56.0144" height="59.645" filterUnits="userSpaceOnUse" color-interpolation-filters="sRGB">
<feFlood flood-opacity="0" result="BackgroundImageFix"/>
<feColorMatrix in="SourceAlpha" type="matrix" values="0 0 0 0 0 0 0 0 0 0 0 0 0 0 0 0 0 0 127 0" result="hardAlpha"/>
<feOffset dy="5"/>
<feGaussianBlur stdDeviation="4"/>
<feColorMatrix type="matrix" values="0 0 0 0 0.968627 0 0 0 0 0.254902 0 0 0 0 0.564706 0 0 0 0.3 0"/>
<feBlend mode="normal" in2="BackgroundImageFix" result="effect1_dropShadow_82_5076"/>
<feBlend mode="normal" in="SourceGraphic" in2="effect1_dropShadow_82_5076" result="shape"/>
</filter>
<filter id="filter1_d_82_5076" x="39.6046" y="20.3577" width="80.8629" height="80.4873" filterUnits="userSpaceOnUse" color-interpolation-filters="sRGB">
<feFlood flood-opacity="0" result="BackgroundImageFix"/>
<feColorMatrix in="SourceAlpha" type="matrix" values="0 0 0 0 0 0 0 0 0 0 0 0 0 0 0 0 0 0 127 0" result="hardAlpha"/>
<feOffset dy="11"/>
<feGaussianBlur stdDeviation="11"/>
<feColorMatrix type="matrix" values="0 0 0 0 0.397708 0 0 0 0 0.47749 0 0 0 0 0.575 0 0 0 0.18 0"/>
<feBlend mode="normal" in2="BackgroundImageFix" result="effect1_dropShadow_82_5076"/>
<feBlend mode="normal" in="SourceGraphic" in2="effect1_dropShadow_82_5076" result="shape"/>
</filter>
<filter id="filter2_d_82_5076" x="0.207886" y="23.4897" width="79.7722" height="79.5479" filterUnits="userSpaceOnUse" color-interpolation-filters="sRGB">
<feFlood flood-opacity="0" result="BackgroundImageFix"/>
<feColorMatrix in="SourceAlpha" type="matrix" values="0 0 0 0 0 0 0 0 0 0 0 0 0 0 0 0 0 0 127 0" result="hardAlpha"/>
<feOffset dy="11"/>
<feGaussianBlur stdDeviation="11"/>
<feColorMatrix type="matrix" values="0 0 0 0 0.397708 0 0 0 0 0.47749 0 0 0 0 0.575 0 0 0 0.18 0"/>
<feBlend mode="normal" in2="BackgroundImageFix" result="effect1_dropShadow_82_5076"/>
<feBlend mode="normal" in="SourceGraphic" in2="effect1_dropShadow_82_5076" result="shape"/>
</filter>
<filter id="filter3_d_82_5076" x="20.6942" y="0" width="79.7722" height="79.5479" filterUnits="userSpaceOnUse" color-interpolation-filters="sRGB">
<feFlood flood-opacity="0" result="BackgroundImageFix"/>
<feColorMatrix in="SourceAlpha" type="matrix" values="0 0 0 0 0 0 0 0 0 0 0 0 0 0 0 0 0 0 127 0" result="hardAlpha"/>
<feOffset dy="11"/>
<feGaussianBlur stdDeviation="11"/>
<feColorMatrix type="matrix" values="0 0 0 0 0.397708 0 0 0 0 0.47749 0 0 0 0 0.575 0 0 0 0.18 0"/>
<feBlend mode="normal" in2="BackgroundImageFix" result="effect1_dropShadow_82_5076"/>
<feBlend mode="normal" in="SourceGraphic" in2="effect1_dropShadow_82_5076" result="shape"/>
</filter>
<linearGradient id="paint0_linear_82_5076" x1="79.0417" y1="21.2523" x2="81.9783" y2="21.2523" gradientUnits="userSpaceOnUse">
<stop stop-color="#FF66A9"/>
<stop offset="1" stop-color="#F53689"/>
</linearGradient>
<linearGradient id="paint1_linear_82_5076" x1="97.3895" y1="29.2775" x2="100.935" y2="29.2775" gradientUnits="userSpaceOnUse">
<stop stop-color="#83A6FF"/>
<stop offset="1" stop-color="#5A78FF"/>
</linearGradient>
<linearGradient id="paint2_linear_82_5076" x1="9.95771" y1="121.706" x2="13.5031" y2="121.706" gradientUnits="userSpaceOnUse">
<stop stop-color="#83A6FF"/>
<stop offset="1" stop-color="#5A78FF"/>
</linearGradient>
<linearGradient id="paint3_linear_82_5076" x1="58.2466" y1="100.898" x2="58.2466" y2="128.617" gradientUnits="userSpaceOnUse">
<stop stop-color="#FF66A9"/>
<stop offset="1" stop-color="#F53689"/>
</linearGradient>
<linearGradient id="paint4_linear_82_5076" x1="69.61" y1="62.5707" x2="92.558" y2="62.5707" gradientUnits="userSpaceOnUse">
<stop stop-color="#FF66A9"/>
<stop offset="1" stop-color="#F53689"/>
</linearGradient>
<linearGradient id="paint5_linear_82_5076" x1="80.2516" y1="57.5028" x2="80.2516" y2="56.4016" gradientUnits="userSpaceOnUse">
<stop stop-color="white"/>
<stop offset="0.9913" stop-color="#E6EDF7"/>
</linearGradient>
<linearGradient id="paint6_linear_82_5076" x1="40.4277" y1="60.4199" x2="40.4277" y2="57.9129" gradientUnits="userSpaceOnUse">
<stop stop-color="white"/>
<stop offset="0.9913" stop-color="#E6EDF7"/>
</linearGradient>
<linearGradient id="paint7_linear_82_5076" x1="47.961" y1="42.0928" x2="73.4649" y2="42.0928" gradientUnits="userSpaceOnUse">
<stop stop-color="#83A6FF"/>
<stop offset="1" stop-color="#5A78FF"/>
</linearGradient>
<linearGradient id="paint8_linear_82_5076" x1="60.8906" y1="36.9468" x2="60.8906" y2="34.4398" gradientUnits="userSpaceOnUse">
<stop stop-color="white"/>
<stop offset="0.9913" stop-color="#E6EDF7"/>
</linearGradient>
<linearGradient id="paint9_linear_82_5076" x1="71.7433" y1="83.2414" x2="76.7054" y2="76.1755" gradientUnits="userSpaceOnUse">
<stop stop-color="#83A6FF"/>
<stop offset="1" stop-color="#5A78FF"/>
</linearGradient>
<linearGradient id="paint10_linear_82_5076" x1="41.417" y1="83.0442" x2="46.3791" y2="75.9782" gradientUnits="userSpaceOnUse">
<stop stop-color="#83A6FF"/>
<stop offset="1" stop-color="#5A78FF"/>
</linearGradient>
</defs>
</svg>
