<svg width="164" height="122" viewBox="0 0 164 122" fill="none" xmlns="http://www.w3.org/2000/svg">
<path opacity="0.1" d="M76.6578 103C105.018 103 128.009 79.9427 128.009 51.5C128.009 23.0573 105.018 0 76.6578 0C48.2973 0 25.3066 23.0573 25.3066 51.5C25.3066 79.9427 48.2973 103 76.6578 103Z" fill="#EAEEF9"/>
<path d="M7.03304 47.14H30.5582C31.7199 47.14 32.5912 46.1591 32.5912 45.08C32.5912 43.9029 31.6231 43.02 30.5582 43.02H7.03304C5.8713 43.02 5 44.001 5 45.08C5 46.2572 5.96811 47.14 7.03304 47.14Z" fill="url(#paint0_linear_82_5020)"/>
<path d="M12.1054 60.5302H26.2956C27.4948 60.5302 28.3942 59.5492 28.3942 58.4702C28.3942 57.293 27.3949 56.4102 26.2956 56.4102H12.1054C10.9063 56.4102 10.0069 57.3911 10.0069 58.4702C9.90697 59.6473 10.9063 60.5302 12.1054 60.5302Z" fill="url(#paint1_linear_82_5020)"/>
<path d="M17.1512 73.9198H21.031C22.2563 73.9198 23.1752 72.9389 23.1752 71.8598C23.1752 70.6827 22.1542 69.7998 21.031 69.7998H17.1512C15.926 69.7998 15.0071 70.7808 15.0071 71.8598C14.9049 73.0369 15.926 73.9198 17.1512 73.9198Z" fill="url(#paint2_linear_82_5020)"/>
<g filter="url(#filter0_d_82_5020)">
<path d="M132.348 18.7555V85.177C132.348 86.835 131.005 88.1821 129.248 88.1821H25.0997C23.3432 88.1821 22 86.835 22 85.177V18.7555C22 17.0976 23.3432 15.7505 25.0997 15.7505H129.248C131.005 15.7505 132.348 17.0976 132.348 18.7555Z" fill="white"/>
</g>
<path d="M132.348 18.8591V23.004H22V18.8591C22 17.0976 23.3432 15.7505 25.0997 15.7505H129.248C131.005 15.7505 132.348 17.0976 132.348 18.8591Z" fill="url(#paint3_linear_82_5020)"/>
<path d="M25.6176 20.7245C26.2455 20.7245 26.7546 20.2142 26.7546 19.5847C26.7546 18.9551 26.2455 18.4448 25.6176 18.4448C24.9897 18.4448 24.4807 18.9551 24.4807 19.5847C24.4807 20.2142 24.9897 20.7245 25.6176 20.7245Z" fill="white"/>
<path d="M28.8197 20.7245C29.4476 20.7245 29.9566 20.2142 29.9566 19.5847C29.9566 18.9551 29.4476 18.4448 28.8197 18.4448C28.1918 18.4448 27.6827 18.9551 27.6827 19.5847C27.6827 20.2142 28.1918 20.7245 28.8197 20.7245Z" fill="white"/>
<path d="M31.9194 20.7245C32.5473 20.7245 33.0563 20.2142 33.0563 19.5847C33.0563 18.9551 32.5473 18.4448 31.9194 18.4448C31.2914 18.4448 30.7824 18.9551 30.7824 19.5847C30.7824 20.2142 31.2914 20.7245 31.9194 20.7245Z" fill="white"/>
<path d="M117.106 32H94.8936C94.383 32 94 31.625 94 31.125V30.875C94 30.375 94.383 30 94.8936 30H117.106C117.617 30 118 30.375 118 30.875V31.125C118 31.5 117.617 32 117.106 32Z" fill="#1C3754"/>
<path d="M127.846 42H95.1538C94.5128 42 94 41.5556 94 41C94 40.4444 94.5128 40 95.1538 40H127.846C128.487 40 129 40.4444 129 41C128.872 41.5556 128.487 42 127.846 42Z" fill="url(#paint4_linear_82_5020)"/>
<path d="M127.846 48H95.1538C94.5128 48 94 47.5556 94 47C94 46.4444 94.5128 46 95.1538 46H127.846C128.487 46 129 46.4444 129 47C128.872 47.5556 128.487 48 127.846 48Z" fill="url(#paint5_linear_82_5020)"/>
<path d="M127.846 54H95.1538C94.5128 54 94 53.5556 94 53C94 52.4444 94.5128 52 95.1538 52H127.846C128.487 52 129 52.4444 129 53C128.872 53.6667 128.487 54 127.846 54Z" fill="url(#paint6_linear_82_5020)"/>
<path d="M111.245 60H94.7552C94.3776 60 94 59.6471 94 59.2941V58.7059C94 58.3529 94.3776 58 94.7552 58H111.245C111.622 58 112 58.3529 112 58.7059V59.2941C112 59.6471 111.748 60 111.245 60Z" fill="url(#paint7_linear_82_5020)"/>
<path d="M92.7762 7.46064C93.7061 7.46064 94.5327 6.73529 94.5327 5.69907C94.5327 4.76647 93.8094 3.9375 92.7762 3.9375C91.8463 3.9375 91.0197 4.66285 91.0197 5.69907C91.123 6.73529 91.8463 7.46064 92.7762 7.46064Z" fill="url(#paint8_linear_82_5020)"/>
<path d="M46.901 101.757C47.8309 101.757 48.6575 101.031 48.6575 99.995C48.6575 99.0624 47.9342 98.2334 46.901 98.2334C45.9711 98.2334 45.1445 98.9587 45.1445 99.995C45.1445 101.031 45.9711 101.757 46.901 101.757Z" fill="url(#paint9_linear_82_5020)"/>
<path d="M84.377 41.3758C84.0789 41.0768 83.7808 40.9273 83.4827 40.6284C79.9054 37.6386 76.4771 34.6489 72.8998 31.6592C72.4526 31.3602 71.8564 31.0612 71.4092 31.0612C68.7263 31.0612 66.0433 31.0612 63.3603 31.0612C62.0188 31.0612 61.5717 31.5097 61.5717 32.8551C61.2735 35.6953 59.1868 37.9376 56.5038 37.9376C53.5227 37.9376 51.1378 35.9943 50.8397 33.0046C50.5416 30.4633 50.0945 31.0612 41.3002 31.0612C40.4059 31.0612 39.6606 31.3602 39.0644 31.9581C35.4871 34.9479 31.9098 37.9376 28.4816 40.9273C28.3325 41.0768 28.1834 41.2263 27.8853 41.3758C26.842 42.2727 26.6929 43.0202 27.5872 44.0666C29.3759 46.1594 31.0155 48.2522 32.8041 50.345C33.5494 51.3914 33.9966 51.3914 35.7852 50.644C36.6796 50.1955 38.1701 49.4481 40.1078 48.5512V75.6082C40.1078 77.5515 40.555 78 42.4927 78C51.585 78 60.6773 78 69.7697 78C71.7074 78 72.1545 77.5515 72.1545 75.6082V48.4017C74.2413 49.4481 75.5828 50.1955 76.6262 50.644C78.4148 51.3914 78.7129 51.3914 79.6073 50.345C81.3959 48.2522 83.1846 46.0099 84.9732 43.9171C85.4204 43.0202 85.4204 42.2727 84.377 41.3758Z" fill="#DDE1F0"/>
<path d="M67.8321 50.3448L64.702 52.5871C64.2548 53.0356 63.6586 53.0356 63.2115 52.5871L60.0813 50.3448C59.7832 50.1953 59.7832 49.8964 59.7832 49.5974V44.6643C59.7832 44.3654 60.0813 44.0664 60.3794 44.0664H67.534C67.8321 44.0664 68.1303 44.3654 68.1303 44.6643V49.5974C68.1303 49.8964 67.9812 50.1953 67.8321 50.3448Z" fill="#C5CCDE"/>
<path d="M35.9344 50.6441C34.1457 51.541 33.6985 51.3915 32.9533 50.3451C31.1646 48.2523 29.376 46.1595 27.7364 44.0667C26.842 43.0203 26.842 42.2729 28.0345 41.3759C28.1835 41.2265 28.3326 41.077 28.6307 40.9275L35.9344 50.6441Z" fill="#C5CCDE"/>
<path d="M84.973 44.0665C83.1844 46.1593 81.3957 48.4016 79.6071 50.4945C78.8618 51.3914 78.4146 51.5409 76.626 50.7934L83.7806 40.7778C84.0787 41.0768 84.3768 41.2263 84.6749 41.5253C85.7183 42.2727 85.8674 43.0201 84.973 44.0665Z" fill="#C5CCDE"/>
<g filter="url(#filter1_d_82_5020)">
<path d="M138.244 91H68.6309C66.6276 91 65 89.3443 65 87.3066V67.6934C65 65.6557 66.6276 64 68.6309 64H138.369C140.372 64 142 65.6557 142 67.6934V87.3066C142 89.3443 140.372 91 138.244 91Z" fill="white"/>
</g>
<path d="M76.5091 71.2791L78.0108 74.2912C78.1359 74.4167 78.2611 74.5422 78.3862 74.5422L81.765 75.1697C82.1404 75.2952 82.3907 75.7972 82.0153 76.0482L79.6376 78.4328C79.5125 78.5583 79.5125 78.6838 79.5125 78.9348L80.1382 82.3234C80.2633 82.6999 79.7628 83.0764 79.3873 82.8254L76.384 81.1938C76.2588 81.0683 76.0086 81.0683 75.8834 81.1938L72.8801 82.8254C72.5046 83.0764 72.0041 82.6999 72.1292 82.3234L72.7549 78.9348C72.7549 78.8093 72.7549 78.5583 72.6298 78.4328L70.2521 76.0482C69.8767 75.7972 70.127 75.1697 70.5024 75.1697L73.8812 74.6677C74.0063 74.6677 74.2566 74.5422 74.2566 74.4167L75.7583 71.4046C75.7583 70.9026 76.2588 70.9026 76.5091 71.2791Z" fill="url(#paint10_linear_82_5020)"/>
<path opacity="0.3" d="M76.0084 73.6637H75.8832C75.6328 73.5382 75.6328 73.2872 75.6328 73.1617V73.0362C75.758 72.7852 76.0084 72.7852 76.2587 72.7852C76.5091 72.9107 76.5091 73.1617 76.5091 73.4127C76.2587 73.5382 76.1336 73.6637 76.0084 73.6637Z" fill="white"/>
<path opacity="0.3" d="M73.7565 78.5584C73.6313 78.5584 73.3811 78.4329 73.3811 78.3074C73.2559 78.0564 73.2559 77.9309 73.0056 77.8054L71.6291 76.4248C71.504 76.2993 71.504 76.1738 71.504 76.0483C71.504 75.9228 71.6291 75.7973 71.8794 75.7973L73.7565 75.5463C74.257 75.4208 74.6325 75.1698 74.7576 74.7933L75.0079 74.4168C75.133 74.1658 75.3833 74.1658 75.6336 74.1658C75.8839 74.2913 75.8839 74.5423 75.8839 74.7933L75.5085 75.0443C75.133 75.6718 74.5073 76.1738 73.8816 76.2993L72.8805 76.4248L73.6314 77.1778C73.8816 77.4288 74.0068 77.6799 74.1319 78.0564C74.2571 78.3074 74.1319 78.5584 73.8816 78.5584C73.8816 78.5584 73.7565 78.5584 73.7565 78.5584Z" fill="white"/>
<path d="M90.024 71.2791L91.5257 74.2912C91.6509 74.4167 91.776 74.5422 91.9011 74.5422L95.2799 75.0442C95.6553 75.1697 95.9056 75.6717 95.5302 75.9227L93.0274 78.4328C92.9023 78.5583 92.9023 78.6838 92.9023 78.9348L93.528 82.3234C93.6531 82.6999 93.1525 83.0764 92.7771 82.8254L89.7738 81.1938C89.6486 81.0683 89.3983 81.0683 89.2732 81.1938L86.2698 82.8254C85.8944 83.0764 85.3938 82.6999 85.519 82.3234L86.1447 78.9348C86.1447 78.8093 86.1447 78.5583 86.0196 78.4328L83.6419 76.0482C83.2665 75.7972 83.5167 75.1697 83.8922 75.1697L87.271 74.6677C87.3961 74.6677 87.6464 74.5422 87.6464 74.4167L89.1481 71.4046C89.2732 70.9026 89.7738 70.9026 90.024 71.2791Z" fill="url(#paint11_linear_82_5020)"/>
<path opacity="0.3" d="M89.3981 73.6637H89.2729C89.0226 73.5382 89.0226 73.2872 89.0226 73.1617V73.0362C89.1478 72.7852 89.3981 72.7852 89.6485 72.7852C89.8989 72.9107 89.8989 73.1617 89.8989 73.4127C89.7737 73.5382 89.6485 73.6637 89.3981 73.6637Z" fill="white"/>
<path opacity="0.3" d="M87.2712 78.5586C87.1461 78.5586 86.8958 78.4331 86.8958 78.3076C86.7706 78.0566 86.7706 77.9311 86.5204 77.8056L85.1438 76.4251C85.0187 76.2996 85.0187 76.1741 85.0187 76.0486C85.0187 75.9231 85.1438 75.7976 85.3941 75.7976L87.2712 75.5466C87.7718 75.4211 88.1472 75.17 88.2723 74.7935L88.5226 74.417C88.6477 74.166 88.898 74.166 89.1483 74.166C89.3986 74.2915 89.3986 74.5425 89.3986 74.7935L89.1483 75.17C88.7729 75.7976 88.1472 76.2996 87.5215 76.4251H86.3952L87.1461 77.1781C87.3963 77.4291 87.5215 77.6801 87.6466 78.0566C87.7718 78.3076 87.6466 78.5586 87.3963 78.5586C87.2712 78.5586 87.2712 78.5586 87.2712 78.5586Z" fill="white"/>
<path d="M103.414 71.2791L104.915 74.2912C105.04 74.4167 105.166 74.5422 105.291 74.5422L108.669 75.0442C109.045 75.1697 109.295 75.6717 108.92 75.9227L106.542 78.3073C106.417 78.4328 106.417 78.5583 106.417 78.8093L107.043 82.1979C107.168 82.5744 106.667 82.9509 106.292 82.6999L103.288 81.0683C103.163 80.9428 102.913 80.9428 102.788 81.0683L99.7845 82.6999C99.4091 82.9509 98.9085 82.5744 99.0336 82.1979L99.6593 78.8093C99.6593 78.6838 99.6593 78.4328 99.5342 78.3073L97.1565 75.9227C96.656 75.7972 96.7811 75.1697 97.2817 75.1697L100.66 74.6677C100.786 74.6677 101.036 74.5422 101.036 74.4167L102.538 71.4046C102.663 70.9026 103.288 70.9026 103.414 71.2791Z" fill="url(#paint12_linear_82_5020)"/>
<path opacity="0.3" d="M102.913 73.6637H102.787C102.537 73.5382 102.537 73.2872 102.537 73.1617V73.0362C102.662 72.7852 102.913 72.7852 103.163 72.7852C103.413 72.9107 103.413 73.1617 103.413 73.4127C103.288 73.5382 103.163 73.6637 102.913 73.6637Z" fill="white"/>
<path opacity="0.3" d="M100.661 78.5586C100.535 78.5586 100.285 78.4331 100.285 78.3076C100.16 78.0566 100.16 77.9311 99.9097 77.8056L98.6583 76.4251C98.5332 76.2996 98.5332 76.1741 98.5332 76.0486C98.5332 75.9231 98.6583 75.7976 98.9086 75.7976L100.786 75.5466C101.286 75.4211 101.662 75.17 101.787 74.7935L102.037 74.417C102.162 74.166 102.413 74.166 102.663 74.166C102.913 74.2915 102.913 74.5425 102.913 74.7935L102.663 75.17C102.287 75.7976 101.662 76.2996 101.036 76.4251H99.7846L100.535 77.1781C100.786 77.4291 100.911 77.6801 101.036 78.0566C101.161 78.3076 101.036 78.5586 100.786 78.5586C100.786 78.5586 100.786 78.5586 100.661 78.5586Z" fill="white"/>
<path d="M116.929 71.2791L118.431 74.2912C118.556 74.4167 118.681 74.5422 118.806 74.5422L122.185 75.0442C122.56 75.1697 122.811 75.6717 122.435 75.9227L120.058 78.3073C119.932 78.4328 119.932 78.5583 119.932 78.8093L120.558 82.1979C120.683 82.5744 120.183 82.9509 119.807 82.6999L116.804 81.0683C116.679 80.9428 116.429 80.9428 116.303 81.0683L113.3 82.6999C112.925 82.9509 112.424 82.5744 112.549 82.1979L113.05 78.9348C113.05 78.8093 113.05 78.5583 112.925 78.4328L110.547 76.0482C110.172 75.7972 110.422 75.1697 110.797 75.1697L114.176 74.6677C114.301 74.6677 114.551 74.5422 114.551 74.4167L116.053 71.4046C116.178 70.9026 116.804 70.9026 116.929 71.2791Z" fill="url(#paint13_linear_82_5020)"/>
<path opacity="0.3" d="M116.428 73.6637H116.303C116.053 73.5382 116.053 73.2872 116.053 73.1617V73.0362C116.178 72.7852 116.428 72.7852 116.679 72.7852C116.929 72.9107 116.929 73.1617 116.929 73.4127C116.804 73.5382 116.553 73.6637 116.428 73.6637Z" fill="white"/>
<path opacity="0.3" d="M114.176 78.5586C114.051 78.5586 113.801 78.4331 113.801 78.3076C113.676 78.0566 113.676 77.9311 113.425 77.8056L112.174 76.4251C112.049 76.2996 112.049 76.1741 112.049 76.0486C112.049 75.9231 112.174 75.7976 112.424 75.7976L114.301 75.5466C114.802 75.4211 115.177 75.17 115.302 74.7935L115.553 74.417C115.678 74.166 115.928 74.166 116.178 74.166C116.429 74.2915 116.429 74.5425 116.429 74.7935L116.178 75.17C115.803 75.7976 115.177 76.2996 114.552 76.4251H113.3L114.051 77.1781C114.301 77.4291 114.426 77.6801 114.552 78.0566C114.677 78.3076 114.552 78.5586 114.301 78.5586C114.301 78.5586 114.301 78.5586 114.176 78.5586Z" fill="white"/>
<path d="M130.445 71.2795L131.946 74.2915C132.071 74.417 132.197 74.5425 132.322 74.5425L135.701 75.0445C136.076 75.17 136.326 75.672 135.951 75.9231L133.573 78.3076C133.448 78.4331 133.448 78.5586 133.448 78.8096L134.074 82.1982C134.199 82.5747 133.698 82.9512 133.323 82.7002L130.32 81.0687C130.194 80.9432 129.944 80.9432 129.819 81.0687L126.816 82.7002C126.44 82.9512 125.94 82.5747 126.065 82.1982L126.69 78.8096C126.69 78.6841 126.69 78.4331 126.565 78.3076L124.188 75.9231C123.812 75.672 124.063 75.0445 124.438 75.0445L127.817 74.5425C127.942 74.5425 128.192 74.417 128.192 74.2915L129.694 71.2795C129.694 70.9029 130.194 70.9029 130.445 71.2795Z" fill="url(#paint14_linear_82_5020)"/>
<path opacity="0.3" d="M129.944 73.6642H129.819C129.568 73.5387 129.568 73.2877 129.568 73.1622V73.0367C129.694 72.7857 129.944 72.7856 130.194 72.7856C130.445 72.9111 130.445 73.1622 130.445 73.4132C130.319 73.5387 130.069 73.6642 129.944 73.6642Z" fill="white"/>
<path opacity="0.3" d="M127.692 78.5586C127.567 78.5586 127.317 78.4331 127.317 78.3076C127.191 78.0566 127.191 77.9311 126.941 77.8056L125.565 76.4251C125.44 76.2996 125.44 76.1741 125.44 76.0486C125.44 75.9231 125.565 75.7976 125.815 75.7976L127.692 75.5466C128.193 75.4211 128.568 75.17 128.693 74.7935L128.943 74.417C129.069 74.166 129.319 74.166 129.569 74.166C129.819 74.2915 129.819 74.5425 129.819 74.7935L129.569 75.17C129.194 75.7976 128.568 76.2996 127.942 76.4251H126.816L127.567 77.1781C127.817 77.4291 127.942 77.6801 128.067 78.0566C128.193 78.3076 128.067 78.5586 127.817 78.5586H127.692Z" fill="white"/>
<defs>
<filter id="filter0_d_82_5020" x="0" y="4.75049" width="154.348" height="116.432" filterUnits="userSpaceOnUse" color-interpolation-filters="sRGB">
<feFlood flood-opacity="0" result="BackgroundImageFix"/>
<feColorMatrix in="SourceAlpha" type="matrix" values="0 0 0 0 0 0 0 0 0 0 0 0 0 0 0 0 0 0 127 0" result="hardAlpha"/>
<feOffset dy="11"/>
<feGaussianBlur stdDeviation="11"/>
<feColorMatrix type="matrix" values="0 0 0 0 0.397708 0 0 0 0 0.47749 0 0 0 0 0.575 0 0 0 0.18 0"/>
<feBlend mode="normal" in2="BackgroundImageFix" result="effect1_dropShadow_82_5020"/>
<feBlend mode="normal" in="SourceGraphic" in2="effect1_dropShadow_82_5020" result="shape"/>
</filter>
<filter id="filter1_d_82_5020" x="43" y="44" width="121" height="71" filterUnits="userSpaceOnUse" color-interpolation-filters="sRGB">
<feFlood flood-opacity="0" result="BackgroundImageFix"/>
<feColorMatrix in="SourceAlpha" type="matrix" values="0 0 0 0 0 0 0 0 0 0 0 0 0 0 0 0 0 0 127 0" result="hardAlpha"/>
<feOffset dy="2"/>
<feGaussianBlur stdDeviation="11"/>
<feColorMatrix type="matrix" values="0 0 0 0 0.397708 0 0 0 0 0.47749 0 0 0 0 0.575 0 0 0 0.21 0"/>
<feBlend mode="normal" in2="BackgroundImageFix" result="effect1_dropShadow_82_5020"/>
<feBlend mode="normal" in="SourceGraphic" in2="effect1_dropShadow_82_5020" result="shape"/>
</filter>
<linearGradient id="paint0_linear_82_5020" x1="25.3068" y1="43.1441" x2="24.8764" y2="47.9779" gradientUnits="userSpaceOnUse">
<stop stop-color="#FF66A9"/>
<stop offset="1" stop-color="#F53689"/>
</linearGradient>
<linearGradient id="paint1_linear_82_5020" x1="23.5379" y1="56.5342" x2="22.8985" y2="61.321" gradientUnits="userSpaceOnUse">
<stop stop-color="#FF66A9"/>
<stop offset="1" stop-color="#F53689"/>
</linearGradient>
<linearGradient id="paint2_linear_82_5020" x1="21.0168" y1="69.9239" x2="19.6738" y2="74.3924" gradientUnits="userSpaceOnUse">
<stop stop-color="#FF66A9"/>
<stop offset="1" stop-color="#F53689"/>
</linearGradient>
<linearGradient id="paint3_linear_82_5020" x1="22" y1="19.3754" x2="132.343" y2="19.3754" gradientUnits="userSpaceOnUse">
<stop stop-color="#F2539D"/>
<stop offset="1" stop-color="white"/>
</linearGradient>
<linearGradient id="paint4_linear_82_5020" x1="94.1091" y1="41.0294" x2="128.93" y2="41.0294" gradientUnits="userSpaceOnUse">
<stop stop-color="#CED7E2"/>
<stop offset="1" stop-color="#E6ECF5"/>
</linearGradient>
<linearGradient id="paint5_linear_82_5020" x1="94.1091" y1="47.0622" x2="128.93" y2="47.0622" gradientUnits="userSpaceOnUse">
<stop stop-color="#CED7E2"/>
<stop offset="1" stop-color="#E6ECF5"/>
</linearGradient>
<linearGradient id="paint6_linear_82_5020" x1="94.1091" y1="53.095" x2="128.93" y2="53.095" gradientUnits="userSpaceOnUse">
<stop stop-color="#CED7E2"/>
<stop offset="1" stop-color="#E6ECF5"/>
</linearGradient>
<linearGradient id="paint7_linear_82_5020" x1="93.9812" y1="58.9588" x2="112.036" y2="58.9588" gradientUnits="userSpaceOnUse">
<stop stop-color="#CED7E2"/>
<stop offset="1" stop-color="#E6ECF5"/>
</linearGradient>
<linearGradient id="paint8_linear_82_5020" x1="91.0984" y1="5.73347" x2="94.4383" y2="5.73347" gradientUnits="userSpaceOnUse">
<stop stop-color="#83A6FF"/>
<stop offset="1" stop-color="#5A78FF"/>
</linearGradient>
<linearGradient id="paint9_linear_82_5020" x1="45.1679" y1="100.032" x2="48.5078" y2="100.032" gradientUnits="userSpaceOnUse">
<stop stop-color="#FF66A9"/>
<stop offset="1" stop-color="#F53689"/>
</linearGradient>
<linearGradient id="paint10_linear_82_5020" x1="72.8906" y1="72.0885" x2="79.4246" y2="82.1978" gradientUnits="userSpaceOnUse">
<stop stop-color="#83A6FF"/>
<stop offset="1" stop-color="#5A78FF"/>
</linearGradient>
<linearGradient id="paint11_linear_82_5020" x1="86.3095" y1="72.0885" x2="92.8158" y2="82.2586" gradientUnits="userSpaceOnUse">
<stop stop-color="#83A6FF"/>
<stop offset="1" stop-color="#5A78FF"/>
</linearGradient>
<linearGradient id="paint12_linear_82_5020" x1="99.6931" y1="72.0772" x2="106.1" y2="82.2054" gradientUnits="userSpaceOnUse">
<stop stop-color="#83A6FF"/>
<stop offset="1" stop-color="#5A78FF"/>
</linearGradient>
<linearGradient id="paint13_linear_82_5020" x1="113.215" y1="72.0772" x2="119.623" y2="82.2017" gradientUnits="userSpaceOnUse">
<stop stop-color="#83A6FF"/>
<stop offset="1" stop-color="#5A78FF"/>
</linearGradient>
<linearGradient id="paint14_linear_82_5020" x1="126.826" y1="72.0648" x2="133.274" y2="82.1346" gradientUnits="userSpaceOnUse">
<stop stop-color="#83A6FF"/>
<stop offset="1" stop-color="#5A78FF"/>
</linearGradient>
</defs>
</svg>
