<svg width="138" height="40" viewBox="0 0 138 40" fill="none" xmlns="http://www.w3.org/2000/svg">
<g clip-path="url(#clip0_82_5428)">
<path d="M0.0163574 7.4386H4.82436V18.0794H14.9647V7.4386H19.7789V33.5584H14.9647V22.6942H4.82436V33.5584H0.0163574V7.4386ZM35.0106 25.0508C35.0106 27.2373 33.2223 29.0166 31.0279 29.0166C28.8326 29.0166 27.0453 27.2373 27.0453 25.0508V13.8053H22.4857V25.0508C22.4857 29.7423 26.3179 33.5584 31.0279 33.5584C35.7367 33.5584 39.5687 29.7423 39.5687 25.0508V13.8053H35.0106V25.0508ZM52.2976 13.937C50.0358 13.937 48.457 14.5908 46.9323 16.0817V7.4386H42.3578V23.4566C42.3578 29.4523 46.7096 33.5584 51.5987 33.5584C57.0339 33.5584 61.7962 29.3791 61.7962 23.748C61.7962 18.1883 57.4048 13.937 52.2976 13.937ZM52.4112 29.3428C49.3116 29.3428 46.9412 26.7641 46.9412 23.748C46.9412 20.7314 49.3116 18.1518 52.4112 18.1518C55.0377 18.1518 57.4094 20.7314 57.4094 23.748C57.4094 26.7641 55.0377 29.3428 52.4112 29.3428ZM69.4792 15.085C69.4792 12.7944 71.0114 12.0681 72.6888 12.0681C74.0392 12.0681 75.8261 13.0855 76.9923 14.3212L79.9826 10.8332C78.4882 8.83503 75.4612 7.45389 72.9807 7.45389C68.0195 7.45389 64.4447 10.3246 64.4447 15.085C64.4447 23.9143 75.3516 21.1156 75.3516 26.0585C75.3516 27.5829 73.8566 28.9286 72.1431 28.9286C69.4429 28.9286 68.567 27.6204 67.3273 26.2393L64.0073 29.6543C66.1242 32.2344 68.7496 33.5431 71.887 33.5431C76.5921 33.5431 80.3858 30.6362 80.3858 26.0936C80.3858 16.2835 69.4792 19.336 69.4792 15.085ZM92.4284 13.6811C87.5399 13.6811 83.1876 17.7848 83.1876 23.7818V39.8412H87.7618V31.157C89.2868 32.6468 90.8647 33.3017 93.1273 33.3017C98.2343 33.3017 102.626 29.0509 102.626 23.4912C102.626 17.8594 97.8626 13.6811 92.4284 13.6811ZM93.2413 29.0874C90.1419 29.0874 87.7713 26.5052 87.7713 23.4912C87.7713 20.4746 90.1419 17.8951 93.2413 17.8951C95.8672 17.8951 98.2392 20.4746 98.2392 23.4912C98.2392 26.5052 95.8672 29.0874 93.2413 29.0874ZM136.298 29.3428C133.599 29.3428 132.833 28.1806 132.833 26.3995V18.5151H137.027V14.5187H132.833V9.24953L128.202 11.3202V27.3806C128.202 31.487 131.047 33.5584 134.948 33.5584C135.531 33.5584 136.335 33.5209 136.773 33.4133L137.904 29.2715C137.393 29.3066 136.81 29.3428 136.298 29.3428Z" fill="#45535E"/>
<path d="M124.234 18.7474C123.357 17.2444 122.124 16.0395 120.581 15.1325C119.429 14.4642 118.234 14.04 116.887 13.8578V9.08234C118.234 8.51276 119.07 7.25209 119.07 5.78134C119.07 3.7767 117.456 2.15223 115.445 2.15223C113.433 2.15223 111.791 3.7767 111.791 5.78134C111.791 7.25209 112.578 8.51276 113.925 9.08234V13.86C112.847 14.015 111.73 14.3496 110.71 14.8636C108.626 13.2872 101.794 8.11543 97.7964 5.0948C97.8912 4.75434 97.9642 4.40342 97.9642 4.03319C97.9642 1.81285 96.1592 0.0131836 93.9295 0.0131836C91.6997 0.0131836 89.8955 1.81285 89.8955 4.03319C89.8955 6.25326 91.7016 8.05346 93.9314 8.05346C94.6919 8.05346 95.3954 7.83185 96.0025 7.46752L96.846 8.10497L108.437 16.424C107.824 16.9844 107.253 17.6219 106.797 18.3371C105.872 19.7953 105.306 21.3996 105.306 23.1497V23.5148C105.306 24.7433 105.541 25.9031 105.94 26.9926C106.291 27.9439 106.805 28.8089 107.442 29.591L103.595 33.4323C103.037 33.2256 102.432 33.1832 101.851 33.3101C101.27 33.437 100.738 33.7279 100.318 34.1481C100.028 34.436 99.7975 34.7784 99.6409 35.1556C99.4842 35.5328 99.4043 35.9372 99.4057 36.3453C99.4059 37.1751 99.7305 37.955 100.32 38.5418C100.609 38.8313 100.952 39.0609 101.331 39.2172C101.709 39.3735 102.115 39.4534 102.525 39.4524C102.935 39.4534 103.341 39.3735 103.72 39.2172C104.098 39.0609 104.442 38.8313 104.731 38.5418C105.021 38.2539 105.251 37.9116 105.408 37.5346C105.565 37.1576 105.645 36.7534 105.644 36.3453C105.644 36.0242 105.594 35.7108 105.501 35.413L109.477 31.4518C110.022 31.8269 110.61 32.1426 111.243 32.4149C112.492 32.9526 113.87 33.2802 115.377 33.2802H115.654C117.321 33.2802 118.894 32.8901 120.372 32.0922C121.93 31.249 123.149 30.0959 124.07 28.6238C124.996 27.1477 125.506 25.5168 125.506 23.7225V23.6328C125.506 21.8678 125.096 20.2393 124.234 18.7474ZM119.376 27.057C118.297 28.2517 117.056 28.9876 115.654 28.9876H115.423C114.622 28.9876 113.838 28.767 113.071 28.366C112.207 27.9244 111.55 27.2944 111.012 26.4968C110.456 25.7139 110.154 24.8592 110.154 23.9529V23.6777C110.154 22.7867 110.326 21.9418 110.758 21.144C111.221 20.2718 111.845 19.5935 112.676 19.0543C113.491 18.5188 114.362 18.2561 115.333 18.2561H115.423C116.302 18.2561 117.135 18.4289 117.921 18.8294C118.722 19.2566 119.376 19.8401 119.883 20.6077C120.376 21.3755 120.669 22.2037 120.763 23.1059C120.778 23.2935 120.785 23.4856 120.785 23.6691C120.785 24.8935 120.316 26.0276 119.376 27.057Z" fill="#F8761F"/>
</g>
<defs>
<clipPath id="clip0_82_5428">
<rect width="137.895" height="40" fill="white"/>
</clipPath>
</defs>
</svg>
