<svg width="187" height="40" viewBox="0 0 187 40" fill="none" xmlns="http://www.w3.org/2000/svg">
<g clip-path="url(#clip0_82_5424)">
<path d="M185.617 26.7262C185.038 26.7262 184.568 27.1997 184.568 27.7828C184.568 28.3658 185.038 28.8394 185.617 28.8394C186.196 28.8394 186.666 28.3658 186.666 27.7828C186.666 27.1997 186.196 26.7262 185.617 26.7262ZM185.617 28.6718C185.129 28.6718 184.734 28.2719 184.734 27.7828C184.734 27.2913 185.131 26.8937 185.617 26.8937C186.105 26.8937 186.502 27.2936 186.502 27.7828C186.502 28.272 186.105 28.6718 185.617 28.6718ZM185.959 27.6018C185.959 27.4097 185.823 27.2958 185.623 27.2958H185.288V28.2586H185.453V27.9101H185.632L185.805 28.2586H185.983L185.792 27.8744C185.894 27.8274 185.959 27.7336 185.959 27.6018ZM185.617 27.7604H185.455V27.441H185.617C185.728 27.441 185.794 27.4969 185.794 27.5996C185.794 27.7046 185.726 27.7604 185.617 27.7604ZM59.187 16.0328V13.4773H55.296V28.6807H59.187V19.5645C59.187 17.9137 60.2385 17.1028 61.8779 17.1028H64.0075V13.4774H62.1884C60.7642 13.4773 59.5264 14.2256 59.187 16.0328ZM67.6522 7.46387C66.3212 7.46387 65.3008 8.52272 65.3008 9.86301C65.3008 11.172 66.3212 12.2309 67.6522 12.2309C68.9832 12.2309 70.0037 11.172 70.0037 9.86301C70.0036 8.52266 68.9832 7.46387 67.6522 7.46387ZM65.7111 28.6808H69.5933V13.4773H65.7111V28.6808ZM88.0853 21.079C88.0853 25.4193 84.5914 28.9377 80.2812 28.9377C78.542 28.9377 76.9647 28.3636 75.7003 27.3941V33.144H71.8182V13.4773H75.7003V14.764C76.9647 13.7945 78.542 13.2204 80.2812 13.2204C84.5914 13.2204 88.0853 16.7387 88.0853 21.079ZM84.1788 21.079C84.1788 18.7224 82.28 16.8102 79.9396 16.8102C77.5992 16.8102 75.7003 18.7224 75.7003 21.079C75.7003 23.4357 77.5993 25.3479 79.9396 25.3479C82.28 25.3479 84.1788 23.438 84.1788 21.079ZM155.558 19.7455L153.293 19.12C151.803 18.729 151.224 18.2689 151.224 17.4759C151.224 16.7029 152.04 16.1624 153.207 16.1624C154.318 16.1624 155.19 16.8951 155.19 17.8333V17.9203H158.768V17.8333C158.768 15.0744 156.534 13.2204 153.207 13.2204C149.913 13.2204 147.519 15.0722 147.519 17.6255C147.519 19.6113 148.826 21.108 151.106 21.729L153.276 22.3254C154.924 22.7856 155.536 23.295 155.536 24.2086C155.536 25.1714 154.651 25.8192 153.333 25.8192C151.96 25.8192 151.035 24.9435 151.035 23.6434V23.5563H147.237V23.6434C147.237 26.7619 149.731 28.9421 153.302 28.9421C156.743 28.9421 159.241 26.8133 159.241 23.8824C159.241 22.4439 158.602 20.563 155.558 19.7455ZM101.857 13.4773H105.739V28.6807H101.857V27.394C100.592 28.3635 99.0151 28.9376 97.2759 28.9376C92.9657 28.9376 89.4718 25.4193 89.4718 21.079C89.4718 16.7386 92.9657 13.2204 97.2759 13.2204C99.0151 13.2204 100.592 13.7944 101.857 14.7639V13.4773ZM101.857 21.079C101.857 18.7201 99.9579 16.8102 97.6175 16.8102C95.2771 16.8102 93.3783 18.7224 93.3783 21.079C93.3783 23.4357 95.2771 25.3479 97.6175 25.3479C99.9601 25.3479 101.857 23.438 101.857 21.079ZM119.757 8.06699H123.639V28.683H119.757V27.3963C118.492 28.3658 116.915 28.9399 115.176 28.9399C110.865 28.9399 107.372 25.4216 107.372 21.0812C107.372 16.7408 110.865 13.2226 115.176 13.2226C116.915 13.2226 118.492 13.7967 119.757 14.7662V8.06699ZM119.757 21.079C119.757 18.7224 117.858 16.8102 115.517 16.8102C113.177 16.8102 111.278 18.7224 111.278 21.079C111.278 23.4357 113.175 25.3479 115.517 25.3479C117.858 25.3479 119.757 23.438 119.757 21.079ZM141.663 28.6808H145.545V13.4773H141.663V28.6808ZM143.604 7.46387C142.273 7.46387 141.252 8.52272 141.252 9.86301C141.252 11.172 142.273 12.2309 143.604 12.2309C144.935 12.2309 145.955 11.172 145.955 9.86301C145.955 8.52266 144.935 7.46387 143.604 7.46387ZM176.02 21.079C176.02 25.4193 172.526 28.9377 168.216 28.9377C163.906 28.9377 160.412 25.4194 160.412 21.079C160.412 16.7386 163.906 13.2204 168.216 13.2204C172.526 13.2204 176.02 16.7387 176.02 21.079ZM172.456 21.079C172.456 18.7224 170.557 16.8102 168.216 16.8102C165.876 16.8102 163.977 18.7224 163.977 21.079C163.977 23.4357 165.874 25.3479 168.216 25.3479C170.557 25.3479 172.456 23.438 172.456 21.079ZM57.1993 8.06699H42.3076V11.554H47.8202V28.6807H51.689V11.554H57.2016V8.06699H57.1993ZM132.51 24.5169L129.056 13.4774H124.979L130.158 28.6808H134.83L140.041 13.4774H135.964L132.51 24.5169ZM181.708 16.0328V13.4773H177.817V28.6807H181.708V19.5645C181.708 17.9137 182.76 17.1028 184.399 17.1028H186.529V13.4774H184.71C183.285 13.4773 182.05 14.2256 181.708 16.0328Z" fill="white"/>
<path d="M19.8541 39.9927C30.8193 39.9927 39.7083 31.0416 39.7083 19.9999C39.7083 8.95826 30.8193 0.00720215 19.8541 0.00720215C8.889 0.00720215 0 8.95826 0 19.9999C0 31.0416 8.889 39.9927 19.8541 39.9927Z" fill="#34E0A1"/>
<path d="M32.1175 16.0999L34.5134 13.4751H29.2004C26.5407 11.6456 23.3285 10.5801 19.8545 10.5801C16.385 10.5801 13.1818 11.6479 10.5264 13.4751H5.2002L7.59601 16.0999C6.12749 17.4491 5.20687 19.3926 5.20687 21.5505C5.20687 25.6227 8.48562 28.9243 12.5297 28.9243C14.4507 28.9243 16.201 28.1782 17.5076 26.9585L19.8546 29.5319L22.2016 26.9608C23.5082 28.1805 25.2562 28.9243 27.1773 28.9243C31.2214 28.9243 34.5045 25.6227 34.5045 21.5505C34.5067 19.3903 33.5861 17.4469 32.1175 16.0999ZM12.5318 26.5408C9.79436 26.5408 7.57608 24.307 7.57608 21.5505C7.57608 18.7939 9.79441 16.5601 12.5318 16.5601C15.2692 16.5601 17.4876 18.7939 17.4876 21.5505C17.4876 24.307 15.2692 26.5408 12.5318 26.5408ZM19.8568 21.4053C19.8568 18.1215 17.4854 15.3024 14.3553 14.0984C16.0479 13.3857 17.9046 12.9904 19.8545 12.9904C21.8045 12.9904 23.6634 13.3857 25.356 14.0984C22.2282 15.3047 19.8568 18.1215 19.8568 21.4053ZM27.1796 26.5408C24.4421 26.5408 22.2238 24.307 22.2238 21.5505C22.2238 18.7939 24.4421 16.5601 27.1796 16.5601C29.917 16.5601 32.1353 18.7939 32.1353 21.5505C32.1353 24.307 29.917 26.5408 27.1796 26.5408ZM27.1796 18.9324C25.7443 18.9324 24.5818 20.1029 24.5818 21.5482C24.5818 22.9935 25.7443 24.164 27.1796 24.164C28.6148 24.164 29.7772 22.9935 29.7772 21.5482C29.7772 20.1051 28.6148 18.9324 27.1796 18.9324ZM15.1295 21.5505C15.1295 22.9957 13.9671 24.1663 12.5318 24.1663C11.0966 24.1663 9.93416 22.9957 9.93416 21.5505C9.93416 20.1051 11.0966 18.9346 12.5318 18.9346C13.9671 18.9324 15.1295 20.1051 15.1295 21.5505Z" fill="white"/>
</g>
<defs>
<clipPath id="clip0_82_5424">
<rect width="186.667" height="40" fill="white"/>
</clipPath>
</defs>
</svg>
